<?xml version="1.0" encoding="UTF-8" standalone="no"?>
<!-- Created with Inkscape (http://www.inkscape.org/) -->

<svg
   xmlns:dc="http://purl.org/dc/elements/1.1/"
   xmlns:cc="http://creativecommons.org/ns#"
   xmlns:rdf="http://www.w3.org/1999/02/22-rdf-syntax-ns#"
   xmlns:svg="http://www.w3.org/2000/svg"
   xmlns="http://www.w3.org/2000/svg"
   xmlns:xlink="http://www.w3.org/1999/xlink"
   xmlns:sodipodi="http://sodipodi.sourceforge.net/DTD/sodipodi-0.dtd"
   xmlns:inkscape="http://www.inkscape.org/namespaces/inkscape"
   width="41.920292"
   height="40.592785"
   id="svg6919"
   version="1.1"
   inkscape:version="0.48.2 r9819"
   sodipodi:docname="New document 8">
  <defs
     id="defs6921">
    <radialGradient
       inkscape:collect="always"
       xlink:href="#linearGradient3215"
       id="radialGradient10942"
       gradientUnits="userSpaceOnUse"
       gradientTransform="matrix(0.9943207,0.9646131,-1.0560621,1.0885861,418.86361,-361.64337)"
       cx="344.65146"
       cy="398.35724"
       fx="344.65146"
       fy="398.35724"
       r="67.322754" />
    <linearGradient
       id="linearGradient3215">
      <stop
         id="stop3217"
         offset="0"
         style="stop-color:#1a1a1a;stop-opacity:0.6855346;" />
      <stop
         id="stop3219"
         offset="1"
         style="stop-color:#1a1a1a;stop-opacity:0;" />
    </linearGradient>
    <radialGradient
       inkscape:collect="always"
       xlink:href="#linearGradient3234"
       id="radialGradient10944"
       gradientUnits="userSpaceOnUse"
       gradientTransform="matrix(0.5041447,0.5041447,-1.0724474,1.0724474,594.3307,-196.51329)"
       cx="348.69501"
       cy="505.44727"
       fx="348.69501"
       fy="505.44727"
       r="67.322754" />
    <linearGradient
       id="linearGradient3234">
      <stop
         style="stop-color:#c7c7c7;stop-opacity:0.65408808;"
         offset="0"
         id="stop3236" />
      <stop
         style="stop-color:#ffffff;stop-opacity:0;"
         offset="1"
         id="stop3238" />
    </linearGradient>
    <linearGradient
       inkscape:collect="always"
       xlink:href="#linearGradient3203"
       id="linearGradient10946"
       gradientUnits="userSpaceOnUse"
       x1="228.05783"
       y1="521.34509"
       x2="364.52386"
       y2="415.03455" />
    <linearGradient
       id="linearGradient3203">
      <stop
         id="stop3205"
         offset="0"
         style="stop-color:#f9f9f9;stop-opacity:0.52830189;" />
      <stop
         id="stop3207"
         offset="1"
         style="stop-color:#737373;stop-opacity:0.44654089;" />
    </linearGradient>
    <radialGradient
       inkscape:collect="always"
       xlink:href="#linearGradient3234"
       id="radialGradient10948"
       gradientUnits="userSpaceOnUse"
       gradientTransform="matrix(1.8465684,0,0,1.8465684,-263.17486,-328.10636)"
       cx="310.87253"
       cy="387.57217"
       fx="310.87253"
       fy="387.57217"
       r="68.158737" />
    <radialGradient
       inkscape:collect="always"
       xlink:href="#linearGradient3215"
       id="radialGradient10950"
       gradientUnits="userSpaceOnUse"
       gradientTransform="matrix(1.8465684,0,0,1.8465684,-263.17486,-328.10636)"
       cx="308.52896"
       cy="465.10486"
       fx="308.52896"
       fy="465.10486"
       r="68.158737" />
    <radialGradient
       xlink:href="#linearGradient21644"
       r="15.75"
       inkscape:collect="always"
       id="radialGradient9542"
       gradientUnits="userSpaceOnUse"
       gradientTransform="matrix(1,0,0,0.595238,0,14.875)"
       fy="36.75"
       fx="25.125"
       cy="36.75"
       cx="25.125" />
    <linearGradient
       inkscape:collect="always"
       id="linearGradient21644">
      <stop
         style="stop-color:#000000;stop-opacity:1;"
         offset="0"
         id="stop21646" />
      <stop
         style="stop-color:#000000;stop-opacity:0;"
         offset="1"
         id="stop21648" />
    </linearGradient>
    <linearGradient
       y2="609.50507"
       y1="366.64789"
       xlink:href="#linearGradient5048"
       x2="302.85715"
       x1="302.85715"
       inkscape:collect="always"
       id="linearGradient9536"
       gradientUnits="userSpaceOnUse"
       gradientTransform="matrix(2.774389,0,0,1.969706,-1892.179,-872.8854)" />
    <linearGradient
       id="linearGradient5048">
      <stop
         style="stop-color:black;stop-opacity:0;"
         offset="0"
         id="stop5050" />
      <stop
         style="stop-color:black;stop-opacity:1;"
         offset="0.5"
         id="stop5056" />
      <stop
         style="stop-color:black;stop-opacity:0;"
         offset="1"
         id="stop5052" />
    </linearGradient>
    <radialGradient
       xlink:href="#linearGradient5060"
       r="117.14286"
       inkscape:collect="always"
       id="radialGradient9538"
       gradientUnits="userSpaceOnUse"
       gradientTransform="matrix(2.774389,0,0,1.969706,-1891.633,-872.8854)"
       fy="486.64789"
       fx="605.71429"
       cy="486.64789"
       cx="605.71429" />
    <linearGradient
       inkscape:collect="always"
       id="linearGradient5060">
      <stop
         style="stop-color:black;stop-opacity:1;"
         offset="0"
         id="stop5062" />
      <stop
         style="stop-color:black;stop-opacity:0;"
         offset="1"
         id="stop5064" />
    </linearGradient>
    <radialGradient
       xlink:href="#linearGradient5060"
       r="117.14286"
       inkscape:collect="always"
       id="radialGradient9540"
       gradientUnits="userSpaceOnUse"
       gradientTransform="matrix(-2.774389,0,0,1.969706,112.7623,-872.8854)"
       fy="486.64789"
       fx="605.71429"
       cy="486.64789"
       cx="605.71429" />
    <radialGradient
       xlink:href="#linearGradient2274"
       r="17.977943"
       inkscape:collect="always"
       id="radialGradient9561"
       gradientUnits="userSpaceOnUse"
       gradientTransform="matrix(11.432566,8.3112769,-2.6801498,4.4962417,234.26174,147.22595)"
       fy="38.711506"
       fx="27.741131"
       cy="38.711506"
       cx="27.741131" />
    <linearGradient
       id="linearGradient2274">
      <stop
         style="stop-color:#000000;stop-opacity:0.12871288;"
         offset="0.0000000"
         id="stop2276" />
      <stop
         style="stop-color:#000000;stop-opacity:0.0000000;"
         offset="1.0000000"
         id="stop2278" />
    </linearGradient>
    <linearGradient
       y2="26.022909"
       y1="4.7461624"
       xlink:href="#linearGradient15107"
       x2="18.475286"
       x1="11.572842"
       inkscape:collect="always"
       id="linearGradient9563"
       gradientUnits="userSpaceOnUse"
       gradientTransform="matrix(24.382694,0,0,27.244752,-13.249058,-57.57846)" />
    <linearGradient
       id="linearGradient15107">
      <stop
         style="stop-color:#ffffff;stop-opacity:1.0000000;"
         offset="0.0000000"
         id="stop15109" />
      <stop
         style="stop-color:#eeeeec;stop-opacity:1;"
         offset="1"
         id="stop15111" />
    </linearGradient>
    <linearGradient
       y2="7.4121075"
       y1="4.2507305"
       xlink:href="#linearGradient9749"
       x2="40.024059"
       x1="11.841544"
       inkscape:collect="always"
       id="linearGradient9565"
       gradientUnits="userSpaceOnUse"
       gradientTransform="matrix(24.880938,0,0,-26.497778,-19.682035,593.37187)" />
    <linearGradient
       id="linearGradient9749">
      <stop
         style="stop-color:#ffffff;stop-opacity:1;"
         offset="0"
         id="stop9751" />
      <stop
         style="stop-color:#ededed;stop-opacity:1.0000000;"
         offset="1.0000000"
         id="stop9753" />
    </linearGradient>
    <linearGradient
       y2="31.026741"
       y1="33.357376"
       xlink:href="#linearGradient2573"
       x2="22.17771"
       x1="17.397203"
       inkscape:collect="always"
       id="linearGradient9567"
       gradientUnits="userSpaceOnUse"
       gradientTransform="matrix(18.148975,0,0,18.092654,-65.509231,-16.58018)" />
    <linearGradient
       id="linearGradient2573">
      <stop
         style="stop-color:#ffffff;stop-opacity:1;"
         offset="0"
         id="stop2575" />
      <stop
         style="stop-color:#fffff0;stop-opacity:0;"
         offset="1"
         id="stop2577" />
    </linearGradient>
    <linearGradient
       y2="11.981981"
       y1="11.48487"
       xlink:href="#linearGradient15107"
       x2="13.846983"
       x1="11.74217"
       inkscape:collect="always"
       id="linearGradient9569"
       gradientUnits="userSpaceOnUse"
       gradientTransform="matrix(23.487854,0,0,-27.190671,3.0328453,598.58233)" />
    <linearGradient
       y2="52.090679"
       y1="38.070892"
       xlink:href="#linearGradient2624"
       x2="9.8855038"
       x1="9.1643066"
       inkscape:collect="always"
       id="linearGradient9571"
       gradientUnits="userSpaceOnUse"
       gradientTransform="matrix(44.551759,0,0,13.786675,-13.208423,-10.47597)" />
    <linearGradient
       id="linearGradient2624">
      <stop
         style="stop-color:#2e3436;stop-opacity:1;"
         offset="0"
         id="stop2630" />
      <stop
         style="stop-color:#2e3436;stop-opacity:1;"
         offset="1"
         id="stop2628" />
    </linearGradient>
    <linearGradient
       y2="-7.5274644"
       y1="20.219761"
       xlink:href="#linearGradient15107"
       x2="17.178024"
       x1="10.027"
       inkscape:collect="always"
       id="linearGradient9573"
       gradientUnits="userSpaceOnUse"
       gradientTransform="matrix(28.504907,0,0,-22.281303,-11.544416,586.53573)" />
    <radialGradient
       xlink:href="#linearGradient34793"
       r="261.42862"
       inkscape:collect="always"
       id="radialGradient9530"
       gradientUnits="userSpaceOnUse"
       gradientTransform="matrix(0.8813087,-0.8868066,2.3519178,2.3373363,-2806.2187,-2299.1006)"
       fy="1149.8334"
       fx="-858.57147"
       cy="1149.8334"
       cx="-858.57147" />
    <linearGradient
       inkscape:collect="always"
       id="linearGradient34793">
      <stop
         style="stop-color:#ffffff;stop-opacity:1;"
         offset="0"
         id="stop34795" />
      <stop
         style="stop-color:#ffffff;stop-opacity:0;"
         offset="1"
         id="stop34797" />
    </linearGradient>
    <radialGradient
       xlink:href="#linearGradient9647"
       r="12.30225"
       inkscape:collect="always"
       id="radialGradient9532"
       gradientUnits="userSpaceOnUse"
       gradientTransform="matrix(23.663444,0,0,23.663444,-1434.1785,550.88954)"
       fy="33.30225"
       fx="24.30225"
       cy="33.30225"
       cx="24.30225" />
    <linearGradient
       id="linearGradient9647">
      <stop
         style="stop-color:#ffffff;stop-opacity:1;"
         offset="0"
         id="stop9649" />
      <stop
         style="stop-color:#dbdbdb;stop-opacity:1;"
         offset="1"
         id="stop18795" />
    </linearGradient>
    <linearGradient
       y2="35.05225"
       y1="15.80225"
       xlink:href="#linearGradient2250"
       x2="24.30225"
       x1="21.75"
       inkscape:collect="always"
       id="linearGradient9534"
       gradientUnits="userSpaceOnUse"
       gradientTransform="matrix(13.969136,0,0,13.969136,-1198.5849,873.73173)" />
    <linearGradient
       inkscape:collect="always"
       id="linearGradient2250">
      <stop
         style="stop-color:#ffffff;stop-opacity:1;"
         offset="0"
         id="stop2252" />
      <stop
         style="stop-color:#ffffff;stop-opacity:0;"
         offset="1"
         id="stop2254" />
    </linearGradient>
  </defs>
  <sodipodi:namedview
     id="base"
     pagecolor="#ffffff"
     bordercolor="#666666"
     borderopacity="1.0"
     inkscape:pageopacity="0.0"
     inkscape:pageshadow="2"
     inkscape:zoom="0.35"
     inkscape:cx="198.81782"
     inkscape:cy="-19.70134"
     inkscape:document-units="px"
     inkscape:current-layer="layer1"
     showgrid="false"
     fit-margin-top="0"
     fit-margin-left="0"
     fit-margin-right="0"
     fit-margin-bottom="0"
     inkscape:window-width="483"
     inkscape:window-height="424"
     inkscape:window-x="20"
     inkscape:window-y="20"
     inkscape:window-maximized="0" />
  <metadata
     id="metadata6924">
    <rdf:RDF>
      <cc:Work
         rdf:about="">
        <dc:format>image/svg+xml</dc:format>
        <dc:type
           rdf:resource="http://purl.org/dc/dcmitype/StillImage" />
        <dc:title></dc:title>
      </cc:Work>
    </rdf:RDF>
  </metadata>
  <g
     inkscape:label="Layer 1"
     inkscape:groupmode="layer"
     id="layer1"
     transform="translate(-176.18218,-472.06806)">
    <g
       id="g31307"
       transform="matrix(0.93835851,0,0,0.93835851,-337.1573,-142.14851)">
      <g
         id="g10916"
         transform="matrix(0.33109288,0,0,0.33109288,546.34142,653.84342)">
        <g
           transform="translate(-201.85715,-384.98783)"
           style="display:inline"
           id="g10918" />
        <g
           transform="translate(-201.85715,-384.98783)"
           id="g10920" />
        <g
           transform="translate(-201.85715,-384.98783)"
           id="g10922">
          <g
             transform="translate(2.1772501,2.17725)"
             id="g10924">
            <path
               sodipodi:type="arc"
               style="opacity:0.98999999;fill:#f2f2f2;fill-opacity:0.14485982;stroke:none;display:inline"
               id="path10926"
               sodipodi:cx="306.54498"
               sodipodi:cy="445.63333"
               sodipodi:rx="64.822754"
               sodipodi:ry="64.822754"
               d="m 371.36774,445.63333 c 0,35.80062 -29.02214,64.82276 -64.82276,64.82276 -35.80062,0 -64.82275,-29.02214 -64.82275,-64.82276 0,-35.80062 29.02213,-64.82275 64.82275,-64.82275 35.80062,0 64.82276,29.02213 64.82276,64.82275 z"
               transform="translate(-39.365083,4.6772487)" />
            <path
               sodipodi:type="arc"
               style="opacity:0.98999999;fill:url(#radialGradient10942);fill-opacity:1;stroke:none;display:inline"
               id="path10928"
               sodipodi:cx="306.54498"
               sodipodi:cy="445.63333"
               sodipodi:rx="64.822754"
               sodipodi:ry="64.822754"
               d="m 371.36774,445.63333 c 0,35.80062 -29.02214,64.82276 -64.82276,64.82276 -35.80062,0 -64.82275,-29.02214 -64.82275,-64.82276 0,-35.80062 29.02213,-64.82275 64.82275,-64.82275 35.80062,0 64.82276,29.02213 64.82276,64.82275 z"
               transform="translate(-39.365083,4.6772487)" />
            <path
               d="m 371.36774,445.63333 c 0,35.80062 -29.02214,64.82276 -64.82276,64.82276 -35.80062,0 -64.82275,-29.02214 -64.82275,-64.82276 0,-35.80062 29.02213,-64.82275 64.82275,-64.82275 35.80062,0 64.82276,29.02213 64.82276,64.82275 z"
               sodipodi:ry="64.822754"
               sodipodi:rx="64.822754"
               sodipodi:cy="445.63333"
               sodipodi:cx="306.54498"
               id="path10930"
               style="opacity:0.98999999;fill:url(#radialGradient10944);fill-opacity:1;stroke:url(#linearGradient10946);stroke-width:1;stroke-linecap:butt;stroke-linejoin:round;stroke-miterlimit:4;stroke-opacity:0.52803799;stroke-dasharray:none;display:inline"
               sodipodi:type="arc"
               transform="translate(-39.365083,4.6772487)" />
            <path
               sodipodi:type="arc"
               style="opacity:0.98999999;fill:url(#radialGradient10948);fill-opacity:1;stroke:#000000;stroke-width:2.66878533;stroke-linecap:butt;stroke-linejoin:round;stroke-miterlimit:4;stroke-opacity:1;stroke-dasharray:none"
               id="path10932"
               sodipodi:cx="306.54498"
               sodipodi:cy="445.63333"
               sodipodi:rx="64.822754"
               sodipodi:ry="64.822754"
               d="m 371.36774,445.63333 c 0,35.80062 -29.02214,64.82276 -64.82276,64.82276 -35.80062,0 -64.82275,-29.02214 -64.82275,-64.82276 0,-35.80062 29.02213,-64.82275 64.82275,-64.82275 35.80062,0 64.82276,29.02213 64.82276,64.82275 z"
               transform="matrix(0.7494046,0,0,0.7494046,37.453677,116.3509)" />
            <path
               transform="matrix(0.7494046,0,0,0.7494046,37.453677,116.3509)"
               d="m 371.36774,445.63333 c 0,35.80062 -29.02214,64.82276 -64.82276,64.82276 -35.80062,0 -64.82275,-29.02214 -64.82275,-64.82276 0,-35.80062 29.02213,-64.82275 64.82275,-64.82275 35.80062,0 64.82276,29.02213 64.82276,64.82275 z"
               sodipodi:ry="64.822754"
               sodipodi:rx="64.822754"
               sodipodi:cy="445.63333"
               sodipodi:cx="306.54498"
               id="path10934"
               style="opacity:0.98999999;fill:url(#radialGradient10950);fill-opacity:1;stroke:none"
               sodipodi:type="arc" />
            <path
               id="path10936"
               style="opacity:0.98999999;fill:#ffffff;fill-opacity:1;stroke:none"
               d="m 251.04632,432.9181 c -1.17543,0.0223 -2.28155,0.56051 -3.02449,1.47165 -7.83873,9.34182 -7.83873,22.8619 0,32.20373 8.86114,10.5603 24.72881,11.94653 35.28911,3.08538 10.56031,-8.86114 11.94654,-24.72881 3.08539,-35.28911 -0.88944,-1.18351 -2.35979,-1.77902 -3.82213,-1.54803 -1.46233,0.23098 -2.67754,1.25071 -3.15889,2.65074 -0.48135,1.40003 -0.15013,2.95144 0.86099,4.03283 6.07884,7.24448 5.13342,17.94456 -2.11105,24.0234 -7.24448,6.07884 -17.94456,5.14357 -24.0234,-2.10091 -5.44126,-6.48465 -5.44126,-15.43784 0,-21.92249 1.02608,-1.19402 1.25642,-2.87883 0.5885,-4.30446 -0.66791,-1.42562 -2.10989,-2.32693 -3.68403,-2.30273 z m 16.0886,-6.62467 c -1.06632,0.008 -2.0852,0.442 -2.83037,1.20478 -0.74517,0.76278 -1.15497,1.79149 -1.13838,2.85772 l 0,25.71875 c -0.0204,1.44254 0.7375,2.78433 1.98349,3.51155 1.24599,0.72723 2.78703,0.72723 4.03302,0 1.24599,-0.72722 2.00389,-2.06901 1.98349,-3.51155 l 0,-25.71875 c 0.0168,-1.07706 -0.40156,-2.11537 -1.16031,-2.87999 -0.75874,-0.76462 -1.79378,-1.19095 -2.87094,-1.18251 z"
               inkscape:connector-curvature="0" />
            <path
               id="path10938"
               style="opacity:0.98999999;fill:#2b0000;fill-opacity:1;stroke:none"
               d="m 251.04632,432.73942 c -1.17543,0.0223 -2.28155,0.56051 -3.02449,1.47165 -7.83873,9.34182 -7.83873,22.8619 0,32.20373 8.86114,10.5603 24.72881,11.94653 35.28911,3.08538 10.56031,-8.86114 11.94654,-24.72881 3.08539,-35.28911 -0.88944,-1.18351 -2.35979,-1.77902 -3.82213,-1.54803 -1.46233,0.23098 -2.67754,1.25071 -3.15889,2.65074 -0.48135,1.40003 -0.15013,2.95144 0.86099,4.03283 6.07884,7.24448 5.13342,17.94456 -2.11105,24.0234 -7.24448,6.07884 -17.94456,5.14357 -24.0234,-2.10091 -5.44126,-6.48465 -5.44126,-15.43784 0,-21.92249 1.02608,-1.19402 1.25642,-2.87883 0.5885,-4.30446 -0.66791,-1.42562 -2.10989,-2.32693 -3.68403,-2.30273 z m 16.0886,-6.62467 c -1.06632,0.008 -2.0852,0.442 -2.83037,1.20478 -0.74517,0.76278 -1.15497,1.79149 -1.13838,2.85772 l 0,25.71875 c -0.0204,1.44254 0.7375,2.78433 1.98349,3.51155 1.24599,0.72723 2.78703,0.72723 4.03302,0 1.24599,-0.72722 2.00389,-2.06901 1.98349,-3.51155 l 0,-25.71875 c 0.0168,-1.07706 -0.40156,-2.11537 -1.16031,-2.87999 -0.75874,-0.76462 -1.79378,-1.19095 -2.87094,-1.18251 z"
               inkscape:connector-curvature="0" />
            <path
               d="m 251.04632,432.73942 c -1.17543,0.0223 -2.28155,0.56051 -3.02449,1.47165 -7.83873,9.34182 -7.83873,22.8619 0,32.20373 8.86114,10.5603 24.72881,11.94653 35.28911,3.08538 10.56031,-8.86114 11.94654,-24.72881 3.08539,-35.28911 -0.88944,-1.18351 -2.35979,-1.77902 -3.82213,-1.54803 -1.46233,0.23098 -2.67754,1.25071 -3.15889,2.65074 -0.48135,1.40003 -0.15013,2.95144 0.86099,4.03283 6.07884,7.24448 5.13342,17.94456 -2.11105,24.0234 -7.24448,6.07884 -17.94456,5.14357 -24.0234,-2.10091 -5.44126,-6.48465 -5.44126,-15.43784 0,-21.92249 1.02608,-1.19402 1.25642,-2.87883 0.5885,-4.30446 -0.66791,-1.42562 -2.10989,-2.32693 -3.68403,-2.30273 z m 16.0886,-6.62467 c -1.06632,0.008 -2.0852,0.442 -2.83037,1.20478 -0.74517,0.76278 -1.15497,1.79149 -1.13838,2.85772 l 0,25.71875 c -0.0204,1.44254 0.7375,2.78433 1.98349,3.51155 1.24599,0.72723 2.78703,0.72723 4.03302,0 1.24599,-0.72722 2.00389,-2.06901 1.98349,-3.51155 l 0,-25.71875 c 0.0168,-1.07706 -0.40156,-2.11537 -1.16031,-2.87999 -0.75874,-0.76462 -1.79378,-1.19095 -2.87094,-1.18251 z"
               style="opacity:0.98999999;fill:none;stroke:none"
               id="path10940"
               inkscape:connector-curvature="0" />
          </g>
        </g>
      </g>
      <g
         transform="matrix(0.02282904,0,0,0.02282904,574.88414,652.6182)"
         id="layer1-2"
         inkscape:label="Ebene 1">
        <g
           id="g9575">
          <path
             d="m 40.875,36.75 c 0,5.17767 -7.051515,9.375 -15.75,9.375 -8.698485,0 -15.75,-4.19733 -15.75,-9.375 0,-5.17767 7.051515,-9.375 15.75,-9.375 8.698485,0 15.75,4.19733 15.75,9.375 z"
             id="path21642"
             sodipodi:cx="25.125"
             sodipodi:cy="36.75"
             sodipodi:rx="15.75"
             sodipodi:ry="9.375"
             sodipodi:type="arc"
             style="opacity:0.63068183;fill:url(#radialGradient9542);fill-opacity:1;fill-rule:evenodd;stroke:none;stroke-width:1;marker:none;visibility:visible;display:inline;overflow:visible"
             transform="matrix(14.264978,0,0,4.340409,-183.60188,698.23532)" />
          <g
             id="g6707"
             transform="matrix(0.3778,0,0,0.2107718,688.37458,744.95522)">
            <rect
               height="478.35718"
               id="rect6709"
               style="opacity:0.40206185;fill:url(#linearGradient9536);fill-opacity:1;fill-rule:nonzero;stroke:none;stroke-width:1;marker:none;visibility:visible;display:inline;overflow:visible"
               width="1339.6335"
               x="-1559.2523"
               y="-150.69685" />
            <path
               inkscape:connector-curvature="0"
               d="m -219.61876,-150.68038 c 0,0 0,478.33079 0,478.33079 142.874166,0.90045 345.40022,-107.16966 345.40014,-239.196175 0,-132.026537 -159.436816,-239.134595 -345.40014,-239.134615 z"
               id="path6711"
               sodipodi:nodetypes="cccc"
               style="opacity:0.40206185;fill:url(#radialGradient9538);fill-opacity:1;fill-rule:nonzero;stroke:none;stroke-width:1;marker:none;visibility:visible;display:inline;overflow:visible" />
            <path
               inkscape:connector-curvature="0"
               d="m -1559.2523,-150.68038 c 0,0 0,478.33079 0,478.33079 -142.8742,0.90045 -345.4002,-107.16966 -345.4002,-239.196175 0,-132.026537 159.4368,-239.134595 345.4002,-239.134615 z"
               id="path6713"
               sodipodi:nodetypes="cccc"
               style="opacity:0.40206185;fill:url(#radialGradient9540);fill-opacity:1;fill-rule:nonzero;stroke:none;stroke-width:1;marker:none;visibility:visible;display:inline;overflow:visible" />
          </g>
          <rect
             height="803.02155"
             id="rect2300"
             style="fill:none;stroke:none"
             width="803.02155"
             x="-64.879845"
             y="115.58828" />
          <g
             id="g9544"
             transform="translate(-8,0)">
            <path
               inkscape:connector-curvature="0"
               d="m 69.648811,286.03072 c -0.121152,0.24147 0.0976,0.35564 0,0.57197 -0.04285,0.10185 -0.528627,0.47662 -0.565475,0.57202 -0.03081,0.0889 0.02472,0.48957 0,0.57199 -0.01859,0.0759 0.01241,0.50277 0,0.57201 l 0.565475,424.99326 632.202949,0 -1.13094,-422.70529 c -0.0125,-0.0672 0.0185,-0.49808 0,-0.572 -0.26525,-0.87046 -0.75694,-2.39272 -1.69645,-4.00396 l -629.375559,0 z"
               id="path4210"
               inkscape:r_cx="true"
               inkscape:r_cy="true"
               style="fill:none;stroke:#ffffff;stroke-width:18.0635891;stroke-linecap:butt;stroke-linejoin:miter;stroke-miterlimit:4;stroke-opacity:1;stroke-dasharray:none" />
            <path
               inkscape:connector-curvature="0"
               d="M 357.89361,580.41808 C 314.47929,572.3425 77.874698,323.03929 54.212406,279.63315 c -0.271443,-0.51698 -0.73749,-1.50918 -0.942234,-1.96165 l 626.377628,0 c -5.02869,45.28237 -136.557,298.63276 -173.52741,302.74658 -0.14832,0.008 -0.38615,0 -0.53127,0 l -145.57037,0 c -0.61028,0 -1.40752,0.13349 -2.12514,0 z"
               id="path4212"
               inkscape:r_cx="true"
               inkscape:r_cy="true"
               style="fill:url(#radialGradient9561);fill-opacity:1;fill-rule:evenodd;stroke:none" />
            <path
               inkscape:connector-curvature="0"
               d="m 49.623331,263.03959 0,470.1789 670.944919,0 -1.13432,-468.37744 c -2.3e-4,-0.1034 0.007,-0.49012 0,-0.60047 -0.0133,-0.11728 0.0197,-0.47639 0,-0.6005 -0.0261,-0.1309 -0.53469,-0.46283 -0.56715,-0.60049 l -669.243449,0 z"
               id="path4206"
               inkscape:r_cx="true"
               inkscape:r_cy="true"
               style="fill:url(#linearGradient9563);fill-opacity:1;fill-rule:evenodd;stroke:#2e3436;stroke-width:27.97670746;stroke-linecap:butt;stroke-linejoin:round;stroke-miterlimit:4;stroke-opacity:1;stroke-dasharray:none" />
            <path
               inkscape:connector-curvature="0"
               d="M 313.35378,527.12472 C 268.92583,517.18335 92.459454,316.93797 71.178397,281.07519 l 627.841103,0 c -27.04539,42.21326 -200.48577,242.6549 -238.77246,246.04953 -0.15867,0.007 -0.41346,0 -0.56714,0 l -143.49034,0 c -0.47902,0 -1.17754,0.0643 -1.70148,0 -0.35908,-0.0569 -0.75587,0.0847 -1.1343,0 z"
               id="path4218"
               inkscape:r_cx="true"
               inkscape:r_cy="true"
               style="fill:none;stroke:url(#linearGradient9565);stroke-width:15.47334385;stroke-linecap:butt;stroke-linejoin:miter;stroke-miterlimit:4;stroke-opacity:1" />
            <path
               inkscape:connector-curvature="0"
               d="M 314.8844,534.28891 109.36542,704.25257 152.11131,691.88107 329.99574,563.13083 480.00319,534.02087 314.8844,534.28891 z"
               id="path4220"
               inkscape:r_cx="true"
               inkscape:r_cy="true"
               sodipodi:nodetypes="cccccc"
               style="fill:url(#linearGradient9567);fill-opacity:1;fill-rule:evenodd;stroke:none" />
            <path
               inkscape:connector-curvature="0"
               d="M 311.63674,558.47024 C 268.73128,551.06881 79.126328,322.57834 64.144208,282.79589 c -0.167769,-0.47381 -0.43328,-1.38319 -0.546348,-1.79787 l 644.13621,0 c -14.92651,41.50206 -204.76333,273.70184 -243.66814,277.47222 -0.15437,0.008 -0.39711,0 -0.54636,0 l -149.69746,0 c -0.62758,0 -1.47621,0.12232 -2.18537,0 z"
               id="path4214"
               inkscape:r_cx="true"
               inkscape:r_cy="true"
               style="fill:url(#linearGradient9569);fill-opacity:1;fill-rule:evenodd;stroke:#2e3436;stroke-width:42.74406052;stroke-linecap:butt;stroke-linejoin:round;stroke-miterlimit:4;stroke-opacity:1;stroke-dasharray:none" />
            <path
               inkscape:connector-curvature="0"
               d="m 280.28088,494.01733 -227.742278,217.2354 23.209891,17.9838 239.935217,-195.32248 163.67033,0 211.13566,203.09559 26.16162,-17.25239 -208.69456,-232.47401 -227.67588,6.73409 z"
               id="path4208"
               inkscape:r_cx="true"
               inkscape:r_cy="true"
               sodipodi:nodetypes="ccccccccc"
               style="fill:url(#linearGradient9571);fill-opacity:1;fill-rule:evenodd;stroke:none" />
            <path
               inkscape:connector-curvature="0"
               d="M 308.81654,535.07351 C 270.59547,526.19815 74.645869,308.86525 62.103915,281.34028 c -0.04603,-0.10851 0.03952,-0.48285 0,-0.58465 -0.09894,-0.28506 -0.528068,-0.94622 -0.567153,-1.16926 5.18e-4,-0.0603 -0.0074,-0.5315 0,-0.58465 0.02122,-0.0387 0.53893,0.0314 0.567153,0 l 1.701459,-1.75392 643.721446,0 c -0.0493,0.44012 -0.41168,1.20991 -0.56714,1.75392 -0.13614,0.42708 -0.37335,1.2707 -0.56716,1.75391 -16.73513,39.45895 -208.85819,249.07161 -242.17538,254.31788 -0.27094,0.0297 -0.88654,0 -1.13432,0 l -151.99766,0 c -0.54968,-0.0302 -1.62894,0.14855 -2.26862,0 z"
               id="path4216"
               inkscape:r_cx="true"
               inkscape:r_cy="true"
               style="fill:url(#linearGradient9573);fill-opacity:1;fill-rule:evenodd;stroke:none" />
            <g
               id="g6345"
               transform="matrix(0.9294587,0,0,0.9294587,-1.7468084,-111.34122)">
              <path
                 inkscape:connector-curvature="0"
                 d="M 105.05509,890.25131 301.58055,730.85739 c 0,0 12.73482,8.94638 23.54683,14.49036 10.53177,5.40028 179.29388,6.88049 191.09158,0 11.19249,-6.08332 26.83198,-15.62677 28.07507,-17.2073 5.76429,-7.32898 167.47595,160.77622 168.24602,160.29957 1.4631,-0.90562 -607.48496,5.43388 -607.48496,1.81129 z"
                 id="path7819"
                 sodipodi:nodetypes="ccscssc"
                 style="fill:none;stroke:#000000;stroke-width:15;stroke-linecap:butt;stroke-linejoin:miter;stroke-miterlimit:4;stroke-opacity:1;stroke-dasharray:none" />
            </g>
            <path
               inkscape:connector-curvature="0"
               d="m 546.24011,525.03069 156.56769,175.9282 -0.84177,-365.3246 c -41.38811,55.53397 -75.70991,105.9645 -155.72592,189.3964 z"
               id="path7821"
               sodipodi:nodetypes="cccc"
               style="fill:none;stroke:#000000;stroke-width:9.29458714;stroke-linecap:butt;stroke-linejoin:miter;stroke-miterlimit:4;stroke-opacity:1;stroke-dasharray:none" />
            <path
               inkscape:connector-curvature="0"
               d="M 64.752371,332.26724 C 120.82066,407.56059 179.5159,476.63152 235.63001,531.76479 L 66.435895,693.38304 64.752371,332.26724 z"
               id="path7823"
               sodipodi:nodetypes="cccc"
               style="fill:none;stroke:#000000;stroke-width:9.29458714;stroke-linecap:butt;stroke-linejoin:miter;stroke-miterlimit:4;stroke-opacity:1;stroke-dasharray:none" />
            <g
               id="g6337"
               transform="matrix(0.9294587,0,0,0.9294587,-1.7468084,-111.34122)">
              <path
                 inkscape:connector-curvature="0"
                 d="m 70.003335,418.31236 c -5.509637,7.34618 223.669705,268.26624 270.335335,274.39742 38.7343,5.08911 109.97436,8.02392 160.51017,2.40617 36.33541,-9.05647 208.88597,-181.87144 261.36987,-276.20872 5.03166,-9.04415 -692.215375,-0.59487 -692.215375,-0.59487 z"
                 id="path7308"
                 sodipodi:nodetypes="cscsc"
                 style="fill:none;stroke:#000000;stroke-width:15;stroke-linecap:butt;stroke-linejoin:miter;stroke-miterlimit:4;stroke-opacity:1;stroke-dasharray:none" />
            </g>
            <path
               inkscape:connector-curvature="0"
               d="m 38.727843,248.95233 692.830797,-2.38087 1.19043,499.98098 -696.402089,0 2.380862,-497.60011 z"
               id="path7825"
               sodipodi:nodetypes="ccccc"
               style="fill:none;stroke:#000000;stroke-width:9.29458714;stroke-linecap:butt;stroke-linejoin:round;stroke-miterlimit:4;stroke-opacity:1;stroke-dasharray:none" />
          </g>
          <flowRoot
             id="flowRoot6830"
             style="font-size:144px;font-style:normal;font-weight:bold;fill:#ffffff;fill-opacity:1;stroke:none;font-family:Bitstream Vera Sans"
             transform="translate(-1858.7887,-223.78839)"
             xml:space="preserve"><flowRegion
               id="flowRegion6832"><rect
                 height="186.70943"
                 id="rect6834"
                 style="font-weight:bold;fill:#ffffff;fill-opacity:1"
                 width="381.90564"
                 x="-22.631445"
                 y="370.5899" /></flowRegion><flowPara
               id="flowPara6836" /></flowRoot>          <g
             id="g34803"
             transform="matrix(0.8609779,0,0,0.8609779,932.49898,-410.57695)">
            <path
               d="m -597.14285,1210.9336 c 0,144.383 -117.04556,261.4286 -261.42856,261.4286 -144.38299,0 -261.42859,-117.0456 -261.42859,-261.4286 0,-144.383 117.0456,-261.42856 261.42859,-261.42856 144.383,0 261.42856,117.04556 261.42856,261.42856 z"
               id="path34772"
               sodipodi:cx="-858.57141"
               sodipodi:cy="1210.9336"
               sodipodi:rx="261.42856"
               sodipodi:ry="261.42856"
               sodipodi:type="arc"
               style="fill:#cc0000;fill-opacity:1;fill-rule:evenodd;stroke:#a40000;stroke-width:20;stroke-linecap:butt;stroke-linejoin:miter;stroke-miterlimit:4;stroke-opacity:1;stroke-dasharray:none" />
            <path
               inkscape:connector-curvature="0"
               d="m -600.11842,1196.0558 c 0,144.3086 6.67422,-7.6429 -133.94058,24.7984 -109.19645,25.1928 -375.1827,121.9313 -383.9205,-3.7482 -1.5892,-22.8576 -3.1402,-11.1212 -0.5327,-34.4403 14.9714,-133.8941 115.6322,-233.16066 259.94079,-233.16066 115.06439,0 186.06311,59.58316 237.33316,151.01406 13.55813,24.1785 21.11983,66.2925 21.11983,95.5367 z"
               id="path34780"
               sodipodi:nodetypes="csssssc"
               style="opacity:0.24579127;fill:url(#radialGradient9530);fill-opacity:1;fill-rule:evenodd;stroke:none"
               transform="matrix(0.9602011,0,0,0.9602011,-34.170205,48.193834)" />
            <path
               d="m -597.14285,1210.9336 c 0,144.383 -117.04556,261.4286 -261.42856,261.4286 -144.38299,0 -261.42859,-117.0456 -261.42859,-261.4286 0,-144.383 117.0456,-261.42856 261.42859,-261.42856 144.383,0 261.42856,117.04556 261.42856,261.42856 z"
               id="path34774"
               sodipodi:cx="-858.57141"
               sodipodi:cy="1210.9336"
               sodipodi:rx="261.42856"
               sodipodi:ry="261.42856"
               sodipodi:type="arc"
               style="fill:none;stroke:#ef2929;stroke-width:20;stroke-linecap:butt;stroke-linejoin:miter;stroke-miterlimit:4;stroke-opacity:1;stroke-dasharray:none"
               transform="matrix(0.9292893,0,0,0.9292893,-60.71017,85.625939)" />
            <path
               inkscape:connector-curvature="0"
               d="m -964.36203,1048.346 -59.60867,59.6088 105.25842,105.2585 -105.25842,105.2584 59.60867,59.6088 105.25856,-105.2586 105.25842,105.2586 59.60881,-59.6088 -105.25855,-105.2584 105.25855,-105.2585 -59.60881,-59.6088 -105.25842,105.2584 -105.25856,-105.2584 z"
               id="path2787"
               style="fill:url(#radialGradient9532);fill-opacity:1;fill-rule:evenodd;stroke:url(#linearGradient9534);stroke-width:13.96912956;stroke-linecap:round;stroke-linejoin:round;stroke-miterlimit:4;stroke-opacity:1;stroke-dasharray:none" />
          </g>
        </g>
      </g>
    </g>
  </g>
</svg>
