<?xml version="1.0" encoding="UTF-8" standalone="no"?>
<!-- Created with Inkscape (http://www.inkscape.org/) -->

<svg
   xmlns:dc="http://purl.org/dc/elements/1.1/"
   xmlns:cc="http://creativecommons.org/ns#"
   xmlns:rdf="http://www.w3.org/1999/02/22-rdf-syntax-ns#"
   xmlns:svg="http://www.w3.org/2000/svg"
   xmlns="http://www.w3.org/2000/svg"
   xmlns:xlink="http://www.w3.org/1999/xlink"
   xmlns:sodipodi="http://sodipodi.sourceforge.net/DTD/sodipodi-0.dtd"
   xmlns:inkscape="http://www.inkscape.org/namespaces/inkscape"
   width="53.843254"
   height="47.077587"
   id="svg9235"
   version="1.1"
   inkscape:version="0.48.2 r9819"
   sodipodi:docname="New document 24">
  <defs
     id="defs9237">
    <filter
       color-interpolation-filters="sRGB"
       id="filter83721"
       inkscape:label="Drop shadow"
       width="1.5"
       height="1.5"
       x="-0.25"
       y="-0.25">
      <feGaussianBlur
         id="feGaussianBlur83723"
         in="SourceAlpha"
         stdDeviation="4.2"
         result="blur" />
      <feColorMatrix
         id="feColorMatrix83725"
         result="bluralpha"
         type="matrix"
         values="1 0 0 0 0 0 1 0 0 0 0 0 1 0 0 0 0 0 0.687 0 " />
      <feOffset
         id="feOffset83727"
         in="bluralpha"
         dx="-1.08247e-15"
         dy="8.3"
         result="offsetBlur" />
      <feMerge
         id="feMerge83729">
        <feMergeNode
           id="feMergeNode83731"
           in="offsetBlur" />
        <feMergeNode
           id="feMergeNode83733"
           in="SourceGraphic" />
      </feMerge>
    </filter>
    <linearGradient
       y2="686.1521"
       y1="207.82652"
       xlink:href="#linearGradient1492"
       x2="380.10223"
       x1="749.24927"
       id="linearGradient1495"
       gradientTransform="scale(0.95542499,1.0466546)"
       gradientUnits="userSpaceOnUse" />
    <linearGradient
       id="linearGradient1492">
      <stop
         style="stop-color:#cbcbcb;stop-opacity:1.0000000;"
         offset="0.0000000"
         id="stop1493" />
      <stop
         style="stop-color:#f0f0f0;stop-opacity:1.0000000;"
         offset="0.34923077"
         id="stop1496" />
      <stop
         style="stop-color:#e2e2e2;stop-opacity:1.0000000;"
         offset="1.0000000"
         id="stop1494" />
    </linearGradient>
    <linearGradient
       y2="287.73825"
       y1="169.4436"
       xlink:href="#linearGradient1492"
       x2="622.33325"
       x1="741.63898"
       id="linearGradient1497"
       gradientTransform="scale(0.9552926,1.0467997)"
       gradientUnits="userSpaceOnUse" />
    <linearGradient
       y2="418.53635"
       y1="236.12772"
       xlink:href="#linearGradient1501-9"
       x2="330.88034"
       x1="687.96375"
       id="linearGradient1499"
       gradientTransform="scale(0.98900911,1.011113)"
       gradientUnits="userSpaceOnUse" />
    <linearGradient
       id="linearGradient1501-9">
      <stop
         style="stop-color:#ffffff;stop-opacity:1.0000000;"
         offset="0.0000000"
         id="stop1502" />
      <stop
         style="stop-color:#ffffff;stop-opacity:0.0000000;"
         offset="1.0000000"
         id="stop1504" />
    </linearGradient>
    <linearGradient
       y2="564.19177"
       y1="351.80969"
       xlink:href="#linearGradient1636"
       x2="648.29596"
       x1="466.66058"
       id="linearGradient852"
       gradientTransform="scale(1.0430674,0.95871086)"
       gradientUnits="userSpaceOnUse" />
    <linearGradient
       id="linearGradient1636">
      <stop
         style="stop-color:#df421e;stop-opacity:0.0000000;"
         offset="0.0000000"
         id="stop1637" />
      <stop
         style="stop-color:#fff;stop-opacity:1;"
         offset="1"
         id="stop1638" />
    </linearGradient>
    <linearGradient
       y2="293.39252"
       y1="257.74197"
       xlink:href="#linearGradient853"
       x2="122.36342"
       x1="105.04745"
       id="linearGradient849"
       gradientTransform="scale(0.98763303,1.0125218)"
       gradientUnits="userSpaceOnUse" />
    <linearGradient
       id="linearGradient853">
      <stop
         style="stop-color:#000000;stop-opacity:0.29752067;"
         offset="0.00000000"
         id="stop854" />
      <stop
         style="stop-color:#000000;stop-opacity:0.00000000;"
         offset="1.0000000"
         id="stop855" />
    </linearGradient>
    <linearGradient
       y2="455.26892"
       y1="-0.65236437"
       xlink:href="#linearGradient841"
       x2="309.33096"
       x1="58.516537"
       id="linearGradient845"
       gradientUnits="userSpaceOnUse" />
    <linearGradient
       id="linearGradient841">
      <stop
         style="stop-color:#ffffff;stop-opacity:1.0000000;"
         offset="0.00000000"
         id="stop842" />
      <stop
         style="stop-color:#ffffff;stop-opacity:0.00000000;"
         offset="1.0000000"
         id="stop843" />
    </linearGradient>
    <linearGradient
       y2="465.96884"
       y1="652.89618"
       xlink:href="#linearGradient853"
       x2="250.65154"
       x1="686.63892"
       id="linearGradient840"
       gradientUnits="userSpaceOnUse" />
    <linearGradient
       y2="909.84509"
       y1="492.37067"
       xlink:href="#linearGradient1557"
       x2="364.8688"
       x1="362.27982"
       id="linearGradient1562"
       gradientUnits="userSpaceOnUse" />
    <linearGradient
       id="linearGradient1557">
      <stop
         style="stop-color:#ffffff;stop-opacity:0.0000000;"
         offset="0.0000000"
         id="stop1558" />
      <stop
         style="stop-color:#fff;stop-opacity:1;"
         offset="1"
         id="stop1559" />
    </linearGradient>
    <linearGradient
       y2="162.42596"
       y1="421.14844"
       xlink:href="#linearGradient1557"
       x2="-33.854965"
       x1="277.10812"
       id="linearGradient844"
       gradientUnits="userSpaceOnUse" />
    <linearGradient
       y2="172.46786"
       y1="164.58852"
       xlink:href="#linearGradient1501-9"
       x2="185.13406"
       x1="187.79401"
       id="linearGradient860"
       gradientTransform="scale(1.1561964,0.86490497)"
       gradientUnits="userSpaceOnUse" />
    <linearGradient
       inkscape:collect="always"
       xlink:href="#linearGradient1557"
       id="linearGradient83653"
       x1="86.824104"
       y1="144.03017"
       x2="84.123909"
       y2="138.13136"
       gradientTransform="scale(1.3470852,0.74234356)"
       gradientUnits="userSpaceOnUse" />
    <linearGradient
       inkscape:collect="always"
       xlink:href="#linearGradient1557"
       id="linearGradient83655"
       x1="123.16662"
       y1="100.19267"
       x2="120.28019"
       y2="93.887016"
       gradientTransform="scale(0.84291666,1.1863569)"
       gradientUnits="userSpaceOnUse" />
    <linearGradient
       inkscape:collect="always"
       xlink:href="#linearGradient1557"
       id="linearGradient83657"
       x1="180.17218"
       y1="77.560806"
       x2="177.8642"
       y2="72.518829"
       gradientTransform="scale(0.57053442,1.7527426)"
       gradientUnits="userSpaceOnUse" />
    <linearGradient
       y2="131.95708"
       y1="135.69662"
       xlink:href="#linearGradient1557"
       x2="104.56056"
       x1="106.27235"
       id="linearGradient1560"
       gradientTransform="scale(1.2300876,0.81295021)"
       gradientUnits="userSpaceOnUse" />
  </defs>
  <sodipodi:namedview
     id="base"
     pagecolor="#ffffff"
     bordercolor="#666666"
     borderopacity="1.0"
     inkscape:pageopacity="0.0"
     inkscape:pageshadow="2"
     inkscape:zoom="0.35"
     inkscape:cx="384.78198"
     inkscape:cy="-110.74415"
     inkscape:document-units="px"
     inkscape:current-layer="layer1"
     showgrid="false"
     fit-margin-top="0"
     fit-margin-left="0"
     fit-margin-right="0"
     fit-margin-bottom="0"
     inkscape:window-width="483"
     inkscape:window-height="424"
     inkscape:window-x="20"
     inkscape:window-y="20"
     inkscape:window-maximized="0" />
  <metadata
     id="metadata9240">
    <rdf:RDF>
      <cc:Work
         rdf:about="">
        <dc:format>image/svg+xml</dc:format>
        <dc:type
           rdf:resource="http://purl.org/dc/dcmitype/StillImage" />
        <dc:title></dc:title>
      </cc:Work>
    </rdf:RDF>
  </metadata>
  <g
     inkscape:label="Layer 1"
     inkscape:groupmode="layer"
     id="layer1"
     transform="translate(9.7819827,-374.54044)">
    <g
       id="g83589"
       transform="matrix(0.27026264,0,0,0.27026264,0.59685732,375.63976)"
       style="filter:url(#filter83721)">
      <g
         id="g1694">
        <path
           style="fill:#ffffff;fill-rule:evenodd;stroke-width:0.42649043;stroke-opacity:0.3647799"
           sodipodi:nodetypes="cccccccccccccccc"
           id="path930"
           d="m 17.159384,6.3292894 0,36.7392366 0,36.739242 0,36.739232 0,36.73924 33.52764,0 33.52764,0 33.527636,0 33.52764,0 0,-36.73924 0,-36.739232 0,-36.739242 -33.52764,-36.7392366 -33.527636,0 -33.52764,0 -33.52764,0 z"
           inkscape:connector-curvature="0" />
        <g
           transform="matrix(0.304171,0,0,0.297572,-36.70399,-112.488)"
           style="fill:#000000;fill-opacity:0.06918233"
           id="g1552">
          <path
             style="fill:#000000;fill-opacity:0.06918233;fill-rule:evenodd;stroke-width:0.95407495pt"
             sodipodi:nodetypes="cccccccccccccccc"
             id="path1505"
             d="m 173.35959,408.8126 0,122.261 0,122.261 0,122.261 0,122.261 108.76228,0 108.7623,0 108.76229,0 108.76228,0 0,-122.261 0,-122.261 0,-122.261 -108.76228,-122.261 -108.76229,0 -108.7623,0 -108.76228,0 z"
             inkscape:connector-curvature="0" />
          <path
             style="fill:#000000;fill-opacity:0.06918233;fill-rule:evenodd;stroke-width:0.95407495pt"
             id="path1538"
             d="m 170.125,407.1875 c 0,164.63542 0,329.27083 0,493.90625 147.17708,0 294.35417,0 441.53125,0 0,-123.76042 0,-247.52083 0,-371.28125 -36.84707,-41.42272 -73.68021,-82.85915 -110.5625,-124.25 -110.32292,0 -220.64583,0 -330.96875,0 0,0.33333 0,1.41667 0,1.625 z"
             inkscape:connector-curvature="0" />
          <path
             style="fill:#000000;fill-opacity:0.06918233;fill-rule:evenodd;stroke-width:0.95407495pt"
             id="path1543"
             d="m 166.875,403.9375 c 0,166.80208 0,333.60417 0,500.40625 149.34375,0 298.6875,0 448.03125,0 0,-125.26042 0,-250.52083 0,-375.78125 -37.45108,-42.08952 -74.88871,-84.19233 -112.375,-126.25 -111.88542,0 -223.77083,0 -335.65625,0 0,0.33333 0,1.41667 0,1.625 z"
             inkscape:connector-curvature="0" />
        </g>
        <path
           transform="matrix(0.296689,0,0,0.296689,-71.19601,-34.05825)"
           style="fill:url(#linearGradient1495);fill-opacity:1;fill-rule:evenodd;stroke:#000000;stroke-width:1.4375;stroke-opacity:0.3647799"
           sodipodi:nodetypes="cccccccccccccccc"
           id="rect900"
           d="m 297.99034,136.74154 0,123.8308 0,123.83081 0,123.8308 0,123.8308 113.006,0 113.00601,0 113.006,0 113.006,0 0,-123.8308 0,-123.8308 0,-123.83081 -113.006,-123.8308 -113.006,0 -113.00601,0 -113.006,0 z"
           inkscape:connector-curvature="0" />
        <path
           transform="matrix(0.296689,0,0,0.296689,-71.19601,-34.05825)"
           style="fill:url(#linearGradient1497);fill-opacity:1;fill-rule:evenodd;stroke-width:0.95407495pt"
           sodipodi:nodetypes="cccc"
           id="path906"
           d="m 750.01435,260.57234 c -34.06975,-10.08632 -78.21647,-8.6561 -111.56643,-2.90718 5.75826,-36.94888 6.47805,-83.25495 -1.43957,-120.92362 l 113.006,123.8308 z"
           inkscape:connector-curvature="0" />
        <path
           transform="matrix(0.296689,0,0,0.296689,-71.19601,-34.05825)"
           style="fill:url(#linearGradient1499);fill-opacity:1;fill-rule:evenodd;stroke-width:1pt"
           sodipodi:nodetypes="cccczc"
           id="path1500"
           d="m 301.30655,174.90867 -2.03586,453.99567 443.8164,0 0.25448,-112.22651 C 733.41677,520.49506 633.15091,378.49417 506.9279,384.60173 380.59029,390.71484 413.27857,193.23136 301.30655,174.90867 z"
           inkscape:connector-curvature="0" />
      </g>
      <g
         id="g1752">
        <path
           transform="translate(70.64229,106.4429)"
           style="fill:none;stroke:#000000;stroke-width:0.22499999;stroke-miterlimit:4;stroke-dasharray:none"
           id="path1600"
           d="m -35.440849,-36.609712 102.605566,0"
           inkscape:connector-curvature="0" />
        <path
           transform="translate(70.64229,106.4429)"
           style="fill:none;stroke:#000000;stroke-width:0.22499999;stroke-miterlimit:4;stroke-dasharray:none"
           id="path1601"
           d="m -35.467684,-34.337064 c 14.977081,0 89.862486,0 89.862486,0"
           inkscape:connector-curvature="0" />
        <path
           transform="translate(70.64229,106.4429)"
           style="fill:none;stroke:#000000;stroke-width:0.22499999;stroke-miterlimit:4;stroke-dasharray:none"
           id="path1602"
           d="m -35.436182,-38.882361 c 17.470293,0 104.821754,0 104.821754,0"
           inkscape:connector-curvature="0" />
        <path
           transform="translate(70.64229,106.4429)"
           style="fill:none;stroke:#000000;stroke-width:0.22499999;stroke-miterlimit:4;stroke-dasharray:none"
           id="path1605"
           d="m -35.44785,-41.155009 c 16.546882,0 99.281285,0 99.281285,0"
           inkscape:connector-curvature="0" />
        <path
           transform="translate(70.64229,106.4429)"
           style="fill:none;stroke:#000000;stroke-width:0.22499999;stroke-miterlimit:4;stroke-dasharray:none"
           id="path1606"
           d="m -35.436571,-43.427658 c 17.439512,0 104.637072,0 104.637072,0"
           inkscape:connector-curvature="0" />
        <path
           transform="translate(70.64229,106.4429)"
           style="fill:none;stroke:#000000;stroke-width:0.22499999;stroke-miterlimit:4;stroke-dasharray:none"
           id="path1607"
           d="m -35.437823,-45.700307 c 17.340802,0 104.044805,0 104.044805,0"
           inkscape:connector-curvature="0" />
        <path
           transform="translate(70.64229,106.4429)"
           style="fill:none;stroke:#000000;stroke-width:0.22499999;stroke-miterlimit:4;stroke-dasharray:none"
           id="path1608"
           d="m -35.449016,-47.972954 c 16.45454,0 98.727237,0 98.727237,0"
           inkscape:connector-curvature="0" />
        <path
           transform="translate(70.64229,106.4429)"
           style="fill:none;stroke:#000000;stroke-width:0.22499999;stroke-miterlimit:4;stroke-dasharray:none"
           id="path1609"
           d="m -35.444404,-50.245603 c 16.793013,0 100.758075,0 100.758075,0"
           inkscape:connector-curvature="0" />
        <path
           transform="translate(70.64229,106.4429)"
           style="fill:none;stroke:#000000;stroke-width:0.22499999;stroke-miterlimit:4;stroke-dasharray:none"
           id="path1610"
           d="m -35.433071,-52.518251 c 17.716536,0 106.299213,0 106.299213,0"
           inkscape:connector-curvature="0" />
      </g>
      <path
         transform="matrix(0.497826,0,0,1,53.14573,155.6114)"
         style="fill:none;stroke:#000000;stroke-width:0.31889209;stroke-miterlimit:4;stroke-dasharray:none"
         id="path1622"
         d="m -35.440849,-36.609712 102.605566,0"
         inkscape:connector-curvature="0" />
      <path
         transform="matrix(0.497826,0,0,1,53.14573,155.6114)"
         style="fill:none;stroke:#000000;stroke-width:0.31889209;stroke-miterlimit:4;stroke-dasharray:none"
         id="path1623"
         d="m -35.467684,-34.337064 c 14.977081,0 89.862486,0 89.862486,0"
         inkscape:connector-curvature="0" />
      <path
         transform="matrix(0.497826,0,0,1,53.14573,155.6114)"
         style="fill:none;stroke:#000000;stroke-width:0.31889209;stroke-miterlimit:4;stroke-dasharray:none"
         id="path1624"
         d="m -35.436182,-38.882361 c 17.470293,0 104.821754,0 104.821754,0"
         inkscape:connector-curvature="0" />
      <path
         transform="matrix(0.497826,0,0,1,53.14573,155.6114)"
         style="fill:none;stroke:#000000;stroke-width:0.31889209;stroke-miterlimit:4;stroke-dasharray:none"
         id="path1625"
         d="m -35.44785,-41.155009 c 16.546882,0 99.281285,0 99.281285,0"
         inkscape:connector-curvature="0" />
      <path
         transform="matrix(0.497826,0,0,1,53.14573,155.6114)"
         style="fill:none;stroke:#000000;stroke-width:0.31889209;stroke-miterlimit:4;stroke-dasharray:none"
         id="path1626"
         d="m -35.436571,-43.427658 c 17.439512,0 104.637072,0 104.637072,0"
         inkscape:connector-curvature="0" />
      <path
         transform="matrix(0.497826,0,0,1,53.14573,155.6114)"
         style="fill:none;stroke:#000000;stroke-width:0.31889209;stroke-miterlimit:4;stroke-dasharray:none"
         sodipodi:nodetypes="cc"
         id="path1627"
         d="m -35.437823,-45.700307 c 17.340802,0 112.972776,0 112.972776,0"
         inkscape:connector-curvature="0" />
      <path
         transform="matrix(0.497826,0,0,1,53.14573,155.6114)"
         style="fill:none;stroke:#000000;stroke-width:0.31889209;stroke-miterlimit:4;stroke-dasharray:none"
         sodipodi:nodetypes="cc"
         id="path1628"
         d="m -35.449016,-47.972954 c 16.45454,0 106.843574,0 106.843574,0"
         inkscape:connector-curvature="0" />
      <path
         transform="matrix(0.497826,0,0,1,53.14573,155.6114)"
         style="fill:none;stroke:#000000;stroke-width:0.31889209;stroke-miterlimit:4;stroke-dasharray:none"
         sodipodi:nodetypes="cc"
         id="path1629"
         d="m -35.444404,-50.245603 c 16.793013,0 116.179115,0 116.179115,0"
         inkscape:connector-curvature="0" />
      <path
         transform="matrix(0.497826,0,0,1,53.14573,155.6114)"
         style="fill:none;stroke:#000000;stroke-width:0.31889209;stroke-miterlimit:4;stroke-dasharray:none"
         sodipodi:nodetypes="cc"
         id="path1630"
         d="m -35.433071,-52.518251 c 17.716536,0 124.966792,0 124.966792,0"
         inkscape:connector-curvature="0" />
      <g
         id="g1762">
        <path
           transform="matrix(0.994817,0,0,-1,70.92836,44.1277)"
           style="fill:none;stroke:#000000;stroke-width:0.22558536;stroke-miterlimit:4;stroke-dasharray:none"
           id="path1632"
           d="m -35.440849,-36.609712 102.605566,0"
           inkscape:connector-curvature="0" />
        <path
           transform="translate(0.00614916,-2.622803)"
           style="fill:none;stroke:#000000;stroke-width:0.22499999;stroke-miterlimit:4;stroke-dasharray:none"
           id="path1633"
           d="m 35.676052,81.087564 c 17.635542,0 105.813248,0 105.813248,0"
           inkscape:connector-curvature="0" />
        <path
           transform="matrix(0.994817,0,0,-1,70.92836,44.1277)"
           style="fill:none;stroke:#000000;stroke-width:0.22558536;stroke-miterlimit:4;stroke-dasharray:none"
           id="path1634"
           d="m -35.436182,-38.882361 c 17.470293,0 104.821754,0 104.821754,0"
           inkscape:connector-curvature="0" />
        <path
           transform="translate(0.00614916,-2.622803)"
           style="fill:none;stroke:#000000;stroke-width:0.22499999;stroke-miterlimit:4;stroke-dasharray:none"
           id="path1636"
           d="m 35.634975,87.905509 c 14.69802,0 88.188115,0 88.188115,0"
           inkscape:connector-curvature="0" />
        <path
           transform="matrix(0.994817,0,0,-1,70.92836,44.1277)"
           style="fill:none;stroke:#000000;stroke-width:0.22558536;stroke-miterlimit:4;stroke-dasharray:none"
           id="path1637"
           d="m -35.436571,-43.427658 c 17.439512,0 104.637072,0 104.637072,0"
           inkscape:connector-curvature="0" />
        <path
           transform="matrix(0.994817,0,0,-1,70.92836,44.1277)"
           style="fill:none;stroke:#000000;stroke-width:0.22558536;stroke-miterlimit:4;stroke-dasharray:none"
           id="path1638"
           d="m -35.437823,-45.700307 c 17.340802,0 104.044805,0 104.044805,0"
           inkscape:connector-curvature="0" />
        <path
           transform="matrix(0.994817,0,0,-1,70.92836,44.1277)"
           style="fill:none;stroke:#000000;stroke-width:0.22558536;stroke-miterlimit:4;stroke-dasharray:none"
           id="path1639"
           d="m -35.449016,-47.972954 c 16.45454,0 98.727237,0 98.727237,0"
           inkscape:connector-curvature="0" />
        <path
           transform="translate(0.00614916,-2.622803)"
           style="fill:none;stroke:#000000;stroke-width:0.22499999;stroke-miterlimit:4;stroke-dasharray:none"
           id="path1640"
           d="m 35.673644,96.996103 c 17.63819,0 105.829136,0 105.829136,0"
           inkscape:connector-curvature="0" />
        <path
           transform="translate(0.00614916,-2.622803)"
           style="fill:none;stroke:#000000;stroke-width:0.22499999;stroke-miterlimit:4;stroke-dasharray:none"
           id="path1641"
           d="m 35.598477,99.268751 c 11.75863,0 70.551773,0 70.551773,0"
           inkscape:connector-curvature="0" />
      </g>
      <path
         style="fill:none;stroke:#000000;stroke-width:0.22499999;stroke-miterlimit:4;stroke-dasharray:none"
         id="path1668"
         d="m 35.591371,39.041426 c 8.816388,0 52.898324,0 52.898324,0"
         inkscape:connector-curvature="0" />
      <path
         style="fill:none;stroke:#000000;stroke-width:0.22499999;stroke-miterlimit:4;stroke-dasharray:none"
         id="path1669"
         d="m 35.613879,36.768777 c 10.88649,0 65.318941,0 65.318941,0"
         inkscape:connector-curvature="0" />
      <path
         style="fill:none;stroke:#000000;stroke-width:0.625;stroke-miterlimit:4;stroke-dasharray:none"
         id="path1690"
         d="m 35.791856,21.998602 c 7.261536,0 43.569216,0 43.569216,0"
         inkscape:connector-curvature="0" />
      <path
         style="stroke-width:1pt"
         sodipodi:nodetypes="cccccccccccccccccccccccccccccccccccccccccccccc"
         id="path1730"
         d="m 40.04585,126.82742 c -0.23368,0.98445 -0.615503,1.92359 -0.946919,2.87925 -0.742872,2.23691 0.582423,1.66717 2.258495,0.93711 1.221349,-0.61705 5.551359,-4.08142 6.403715,-4.06963 0.718942,0.01 0.615838,0.0644 0.992675,0.53702 0.02386,3.30093 -5.251793,8.86946 -7.347772,11.1124 -2.092425,2.13375 -4.314298,4.38598 -6.937689,5.8742 -0.70928,0.40239 -1.9969,1.01351 -2.073866,-0.24349 2.494758,-2.82626 10.348306,-6.6264 13.919313,-7.9489 4.140701,-1.23346 7.081285,0.30336 3.872631,4.39964 -1.555804,1.5419 -3.050131,0.50568 -2.907038,-1.54052 0.144276,-2.06309 1.135894,-3.97933 2.072532,-5.77819 0.580159,-1.01602 5.263058,-8.49154 6.060144,-3.94751 0.37151,1.98971 2.422143,1.15008 3.909826,1.6926 1.564939,1.08311 -0.157545,3.92558 0.894919,4.07755 1.978337,0.18362 4.082068,-0.77443 5.857774,-1.54272 1.744979,-0.7831 3.30812,-1.08295 1.288606,1.02099 -1.061447,1.23284 -0.06409,0.83237 1.040056,0.63077 1.76605,-0.37299 3.504587,-0.86608 5.251685,-1.31755 2.115491,-0.50372 5.9832,-0.91012 3.280091,-0.051 -1.784705,0.40171 -6.418974,1.67004 -8.200022,2.08657 -1.642581,0.35161 -4.1878,0.30234 -2.395955,-1.76517 0.270126,-0.2906 0.59858,-1.20022 0.814846,-0.8676 0.549068,0.8445 1.441187,0.12145 -0.436454,0.91922 -2.163601,0.89111 -4.733318,1.98888 -7.106388,1.5769 -2.117893,-0.93852 0.285425,-2.8165 -0.930626,-4.09305 -1.723978,-0.92639 -3.906045,0.40353 -4.42086,-2.27165 -0.112903,-0.52926 -0.244928,-0.48861 0.04174,-0.74881 0.368869,-0.3348 -0.932354,0.40158 -1.299102,0.73868 -1.242639,1.14223 -2.148775,2.56246 -2.992568,4.00817 -0.970524,1.89239 -2.408238,4.55238 -1.585262,6.74981 0.229536,0.61289 0.139737,0.66089 0.836805,0.0923 2.732321,-3.09961 0.843796,-4.41506 -2.53762,-3.5663 -3.41848,1.13092 -11.011938,4.66808 -13.118605,7.62427 -0.262452,-0.27456 -0.118848,-0.19436 -0.672803,-0.23159 -0.292053,-0.0196 0.581992,-0.1071 0.847224,-0.23091 0.670349,-0.31295 1.299935,-0.72087 1.905886,-1.14212 1.868307,-1.2988 3.538029,-2.83719 5.150048,-4.43606 2.05722,-2.16903 6.858223,-7.37061 6.738805,-10.63568 0.201474,0.0555 0.207802,0.0749 0.473834,0.0192 0.107209,-0.0225 -0.223937,0.0109 -0.323821,0.0558 -0.474728,0.21366 -0.906306,0.53795 -1.323309,0.84357 -1.444663,1.05882 -2.863891,2.08596 -4.446941,2.93376 -2.143436,1.01221 -5.047903,1.50896 -3.969874,-1.66791 0.244899,-0.71276 0.894796,-1.92748 0.708223,-2.71348 l 1.353617,0 z"
         inkscape:connector-curvature="0" />
      <g
         transform="matrix(1.068061,0,0,1.068061,-10.04078,-10.87309)"
         id="g2308">
        <g
           transform="translate(-42.02145,-76.76995)"
           style="fill-opacity:0.07954544"
           id="g2300">
          <path
             style="fill-rule:evenodd;stroke-width:25"
             sodipodi:nodetypes="czzzzzzzzzzzz"
             id="path2299"
             d="m 165.98017,227.75087 c -7.49395,1.26032 -6.93543,-6.08162 -10.94164,-7.51631 -4.00621,-1.43471 -8.33392,4.67492 -13.09561,-1.09191 -4.59943,-5.57032 1.79912,-9.04706 1.0385,-13.23389 -0.76061,-4.18684 -7.17462,-3.55666 -4.13607,-11.70382 2.7426,-7.35362 7.26843,-3.14872 10.51402,-5.90084 3.2456,-2.75212 0.0751,-8.29555 7.31016,-9.51233 8.70624,-1.4642 7.11869,4.79876 11.1249,6.23346 4.00621,1.43471 7.58232,-5.5852 13.09562,1.0919 5.56555,6.74038 -1.79912,9.04707 -1.03851,13.2339 0.76061,4.18683 8.24565,4.79928 5.60219,11.88708 -2.54638,6.82756 -8.73455,2.96545 -11.98014,5.71758 -3.24559,2.75212 0.14146,9.51116 -7.49342,10.79518 z"
             inkscape:connector-curvature="0" />
          <path
             style="fill-rule:evenodd;stroke-width:25"
             sodipodi:nodetypes="czzzzzzzzzzzz"
             id="path2277"
             d="m 165.60336,225.41512 c -6.78,1.14025 -6.27469,-5.50223 -9.89923,-6.80024 -3.62454,-1.29802 -7.53995,4.22955 -11.848,-0.98788 -4.16124,-5.03964 1.62772,-8.18515 0.93957,-11.9731 -0.68815,-3.78796 -6.4911,-3.21782 -3.74203,-10.5888 2.48131,-6.65304 6.57597,-2.84874 9.51235,-5.33867 2.93639,-2.48993 0.068,-7.50524 6.61372,-8.60609 7.8768,-1.32471 6.4405,4.34158 10.06504,5.6396 3.62454,1.29802 6.85995,-5.0531 11.848,0.98787 5.03532,6.09823 -1.62772,8.18516 -0.93957,11.97311 0.68815,3.78795 7.46009,4.34206 5.06847,10.7546 -2.30379,6.1771 -7.90241,2.68294 -10.83879,5.17287 -2.93639,2.48993 0.12798,8.60504 -6.77953,9.76673 z"
             inkscape:connector-curvature="0" />
          <path
             style="fill-rule:evenodd;stroke-width:25"
             sodipodi:nodetypes="czzzzzzzzzzzz"
             id="path2298"
             d="m 165.80955,226.69326 c -7.17067,1.20595 -6.63625,-5.81928 -10.46964,-7.19208 -3.83339,-1.37282 -7.97441,4.47326 -12.5307,-1.04481 -4.40102,-5.33003 1.72151,-8.65679 0.99371,-12.66301 -0.7278,-4.00623 -6.86513,-3.40323 -3.95765,-11.19894 2.62428,-7.0364 6.95488,-3.01289 10.06046,-5.6463 3.10559,-2.6334 0.0719,-7.9377 6.99482,-9.10199 8.33067,-1.40104 6.81161,4.59175 10.645,5.96457 3.8334,1.37281 7.25524,-5.34427 12.53071,1.04479 5.32546,6.44962 -1.72152,8.6568 -0.99371,12.66302 0.7278,4.00622 7.88995,4.59226 5.36052,11.3743 -2.43654,6.53304 -8.35776,2.83754 -11.46334,5.47094 -3.10559,2.63341 0.13535,9.10088 -7.17018,10.32951 z"
             inkscape:connector-curvature="0" />
        </g>
        <g
           transform="matrix(0.744803,0,0,0.744803,-15.81411,33.32497)"
           id="g2231">
          <path
             style="fill:#22364b"
             id="path64"
             d="m 192.4472,114.50882 c 0,0 -12.02148,16.59845 -12.02148,24.04297 0,7.44957 13.741,3.4441 19.17773,8.87576 5.43672,5.44179 -12.88631,19.75428 -12.88631,19.75428 l 18.32303,-5.15857 7.44958,7.72774 c 0,-9.44726 10.8785,-16.88672 5.15351,-22.61678 -5.725,-5.73005 -22.04529,-5.1181 -22.89493,-12.59803 -0.85977,-7.47486 -2.29607,-20.03243 -2.29607,-20.03243 l -0.005,0.005 z"
             inkscape:connector-curvature="0" />
          <path
             transform="matrix(0.109798,0.04095008,-0.04095008,0.109798,168.5971,62.92562)"
             style="fill:#ac0000;fill-rule:evenodd;stroke-width:25"
             sodipodi:nodetypes="czzzzzzzzzzzz"
             id="path1357"
             d="m 426.11179,669.43739 c -68.21825,39.38583 -89.38835,-33.94442 -133.49477,-33.36706 -44.10641,0.57736 -64.00765,75.59224 -131.14372,36.83121 -64.848421,-37.44025 -15.29745,-94.3848 -37.85066,-132.2934 -22.55321,-37.9086 -82.565323,-8.55478 -82.565323,-98.68898 0,-81.35499 59.187613,-56.90959 80.740813,-95.39554 21.5532,-38.48595 -29.319015,-80.84112 36.54205,-118.86602 79.25387,-45.75725 86.52141,20.82105 130.62782,20.24369 44.10642,-0.57736 53.41063,-81.71043 131.14372,-36.83121 78.46994,45.30464 15.29745,94.3848 37.85066,132.2934 22.55321,37.9086 97.46862,16.74404 97.46862,95.15819 0,75.53504 -74.09091,60.44038 -95.64411,98.92633 -21.5532,38.48595 35.82602,91.8629 -33.6751,131.98939 z"
             inkscape:connector-curvature="0" />
          <path
             transform="matrix(0.109798,0.04095008,-0.04095008,0.109798,156.6811,66.88409)"
             style="fill:url(#linearGradient852);fill-rule:evenodd;stroke-width:25"
             sodipodi:nodetypes="czzzzzzzzzzzz"
             id="path1358"
             d="m 506.72753,587.14782 c -68.21825,39.38583 -89.38835,-33.94442 -133.49477,-33.36706 -44.10641,0.57736 -64.00765,75.59224 -131.14372,36.83121 -64.84842,-37.44025 -15.29745,-94.3848 -37.85066,-132.2934 -22.55321,-37.9086 -97.46862,-5.02399 -97.46862,-95.15819 0,-81.35498 74.09091,-60.44037 95.64411,-98.92632 21.5532,-38.48595 -32.18596,-93.96449 33.6751,-131.98939 79.25387,-45.757254 89.38836,33.94442 133.49477,33.36706 44.10642,-0.57736 53.41063,-81.710434 131.14372,-36.83121 78.46994,45.30464 15.29745,94.3848 37.85066,132.2934 22.55321,37.9086 97.46862,16.74404 97.46862,95.15818 0,75.53504 -74.09091,60.44038 -95.64411,98.92633 -21.5532,38.48595 35.82602,91.8629 -33.6751,131.98939 z"
             inkscape:connector-curvature="0" />
          <path
             transform="matrix(0.618772,0,0,0.618772,108.5096,-66.92548)"
             style="fill:url(#linearGradient849);fill-rule:evenodd;stroke-width:25"
             sodipodi:nodetypes="czzzzzzzzzzzz"
             id="path1958"
             d="m 127.50617,348.72618 c -12.9898,2.18461 -12.02168,-10.5417 -18.96593,-13.02857 -6.94424,-2.48688 -14.445779,8.1034 -22.699551,-1.89267 -7.972521,-9.65543 3.118542,-15.68192 1.800123,-22.93925 -1.318429,-7.25732 -14.977628,-6.48267 -9.710686,-20.60472 4.75393,-12.74654 15.140217,-5.14022 20.766036,-9.91068 5.625808,-4.77046 0.44792,-16.60294 12.988858,-18.71206 15.09115,-2.53801 12.02168,10.5417 18.96592,13.02857 6.94425,2.48688 13.14298,-9.68121 22.69956,1.89267 9.64717,11.68358 -3.11855,15.68192 -1.80012,22.93925 1.31843,7.25733 14.29277,8.31894 9.71069,20.60472 -4.41385,11.83468 -15.14022,5.14022 -20.76603,9.91068 -5.62582,4.77046 0.2452,16.48637 -12.98887,18.71206 z"
             inkscape:connector-curvature="0" />
          <path
             transform="matrix(0.108835,0.04059093,-0.04059093,0.108835,168.718,63.4651)"
             style="fill:#cb0000;fill-rule:evenodd;stroke:#000000;stroke-width:19.77270317;stroke-opacity:0.06918233"
             sodipodi:type="arc"
             sodipodi:ry="166.98976"
             sodipodi:rx="166.98976"
             sodipodi:cy="450.62323"
             sodipodi:cx="293.67163"
             id="path1359"
             d="m 460.66139,450.62323 c 0,92.2259 -74.76386,166.98976 -166.98976,166.98976 -92.2259,0 -166.98976,-74.76386 -166.98976,-166.98976 0,-92.2259 74.76386,-166.98976 166.98976,-166.98976 92.2259,0 166.98976,74.76386 166.98976,166.98976 z" />
          <path
             transform="matrix(0.08819373,0.0328926,-0.0328926,0.08819373,171.3744,71.37675)"
             style="fill:url(#linearGradient845);fill-opacity:1;fill-rule:evenodd;stroke-width:1pt"
             sodipodi:type="arc"
             sodipodi:ry="166.98976"
             sodipodi:rx="166.98976"
             sodipodi:cy="450.62323"
             sodipodi:cx="293.67163"
             id="path1360"
             d="m 460.66139,450.62323 c 0,92.2259 -74.76386,166.98976 -166.98976,166.98976 -92.2259,0 -166.98976,-74.76386 -166.98976,-166.98976 0,-92.2259 74.76386,-166.98976 166.98976,-166.98976 92.2259,0 166.98976,74.76386 166.98976,166.98976 z" />
          <path
             transform="matrix(0.08720283,0.03252287,-0.03252287,0.08720283,172.8277,76.96071)"
             style="fill:url(#linearGradient840);fill-opacity:1;fill-rule:evenodd;stroke-width:1pt"
             sodipodi:type="arc"
             sodipodi:ry="166.98976"
             sodipodi:rx="166.98976"
             sodipodi:cy="450.62323"
             sodipodi:cx="293.67163"
             id="path1957"
             d="m 460.66139,450.62323 c 0,92.2259 -74.76386,166.98976 -166.98976,166.98976 -92.2259,0 -166.98976,-74.76386 -166.98976,-166.98976 0,-92.2259 74.76386,-166.98976 166.98976,-166.98976 92.2259,0 166.98976,74.76386 166.98976,166.98976 z" />
          <path
             transform="matrix(0.08819373,0.0328926,-0.0328926,0.08819373,170.3376,77.84625)"
             style="fill:url(#linearGradient1562);fill-opacity:1;fill-rule:evenodd;stroke-width:1pt"
             sodipodi:type="arc"
             sodipodi:ry="166.98976"
             sodipodi:rx="166.98976"
             sodipodi:cy="450.62323"
             sodipodi:cx="293.67163"
             id="path1361"
             d="m 460.66139,450.62323 c 0,92.2259 -74.76386,166.98976 -166.98976,166.98976 -92.2259,0 -166.98976,-74.76386 -166.98976,-166.98976 0,-92.2259 74.76386,-166.98976 166.98976,-166.98976 92.2259,0 166.98976,74.76386 166.98976,166.98976 z" />
          <path
             transform="matrix(0.06781695,0.02529282,-0.02529282,0.06781695,170.1008,82.30664)"
             style="fill:url(#linearGradient844);fill-opacity:1;fill-rule:evenodd;stroke-width:1pt"
             sodipodi:type="arc"
             sodipodi:ry="166.98976"
             sodipodi:rx="166.98976"
             sodipodi:cy="450.62323"
             sodipodi:cx="293.67163"
             id="path1956"
             d="m 460.66139,450.62323 c 0,92.2259 -74.76386,166.98976 -166.98976,166.98976 -92.2259,0 -166.98976,-74.76386 -166.98976,-166.98976 0,-92.2259 74.76386,-166.98976 166.98976,-166.98976 92.2259,0 166.98976,74.76386 166.98976,166.98976 z" />
          <path
             style="fill:url(#linearGradient860)"
             sodipodi:nodetypes="ccc"
             id="path1970"
             d="m 200.26806,147.94862 c 14.78601,20.93723 22.0919,5.05401 16.76991,-0.27269 -5.32199,-5.32668 -21.82392,-4.77662 -16.76991,0.27269 z"
             inkscape:connector-curvature="0" />
        </g>
        <path
           style="fill:url(#linearGradient83653);fill-rule:evenodd;stroke-width:1pt"
           sodipodi:nodetypes="cccc"
           id="path2304"
           d="m 111.61946,109.49346 c 0,0 1.11115,-6.8689 6.36383,-5.65674 5.25268,1.21216 4.04052,2.52533 4.04052,2.52533 -2.22229,-0.50507 -6.26281,-1.91925 -10.40435,3.13141 z"
           inkscape:connector-curvature="0" />
        <path
           style="fill:url(#linearGradient83655);fill-rule:evenodd;stroke-width:1pt"
           sodipodi:nodetypes="cccc"
           id="path2305"
           d="m 101.69754,123.26086 c 0,0 -3.799689,-5.82912 0.90175,-8.46663 4.70144,-2.63751 4.68826,-0.85045 4.68826,-0.85045 -1.98385,1.12162 -5.92448,2.79407 -5.59001,9.31708 z"
           inkscape:connector-curvature="0" />
        <path
           style="fill:url(#linearGradient83657);fill-rule:evenodd;stroke-width:1pt"
           sodipodi:nodetypes="ccc"
           id="path2306"
           d="m 103.63533,141.13797 c 0,0 2.1609,-11.30147 0.24165,-11.70552 -3.674,5.0025 -4.264875,8.28536 -0.24165,11.70552 z"
           inkscape:connector-curvature="0" />
        <path
           style="fill:url(#linearGradient1560);fill-rule:evenodd;stroke-width:1pt"
           sodipodi:nodetypes="ccc"
           id="path2307"
           d="m 129.03773,109.51665 c 4.70144,-2.63751 4.68826,-0.85045 4.68826,-0.85045 -6.2264,6.3743 -7.47045,2.17479 -4.68826,0.85045 z"
           inkscape:connector-curvature="0" />
      </g>
    </g>
    <g
       style="opacity:0.68224332"
       transform="matrix(0.12548943,0,0,0.12548943,-9.7819827,380.68019)"
       id="g83735">
      <circle
         d="M 262,138 C 262,206.48331 206.48331,262 138,262 69.516691,262 14,206.48331 14,138 14,69.516691 69.516691,14 138,14 c 68.48331,0 124,55.516691 124,124 z"
         style="fill:none;stroke:#b30000;stroke-width:28"
         sodipodi:ry="124"
         sodipodi:rx="124"
         sodipodi:cy="138"
         sodipodi:cx="138"
         cx="138"
         cy="138"
         r="124"
         id="circle83737" />
      <line
         style="stroke:#b30000;stroke-width:22"
         x1="45"
         y1="45"
         x2="231"
         y2="231"
         id="line83739" />
    </g>
  </g>
</svg>
