<?xml version="1.0" encoding="UTF-8" standalone="no"?>
<!-- Created with Inkscape (http://www.inkscape.org/) -->

<svg
   xmlns:dc="http://purl.org/dc/elements/1.1/"
   xmlns:cc="http://creativecommons.org/ns#"
   xmlns:rdf="http://www.w3.org/1999/02/22-rdf-syntax-ns#"
   xmlns:svg="http://www.w3.org/2000/svg"
   xmlns="http://www.w3.org/2000/svg"
   xmlns:sodipodi="http://sodipodi.sourceforge.net/DTD/sodipodi-0.dtd"
   xmlns:inkscape="http://www.inkscape.org/namespaces/inkscape"
   width="74.003082"
   height="46.67432"
   id="svg7284"
   version="1.1"
   inkscape:version="0.48.2 r9819"
   sodipodi:docname="New document 11">
  <defs
     id="defs7286">
    <filter
       color-interpolation-filters="sRGB"
       id="filter67690"
       inkscape:label="Drop shadow"
       width="1.5"
       height="1.5"
       x="-0.25"
       y="-0.25">
      <feGaussianBlur
         id="feGaussianBlur67692"
         in="SourceAlpha"
         stdDeviation="2.7"
         result="blur" />
      <feColorMatrix
         id="feColorMatrix67694"
         result="bluralpha"
         type="matrix"
         values="1 0 0 0 0 0 1 0 0 0 0 0 1 0 0 0 0 0 0.66 0 " />
      <feOffset
         id="feOffset67696"
         in="bluralpha"
         dx="-1.08247e-15"
         dy="7.1"
         result="offsetBlur" />
      <feMerge
         id="feMerge67698">
        <feMergeNode
           id="feMergeNode67700"
           in="offsetBlur" />
        <feMergeNode
           id="feMergeNode67702"
           in="SourceGraphic" />
      </feMerge>
    </filter>
    <filter
       color-interpolation-filters="sRGB"
       id="filter68124"
       inkscape:label="Drop shadow"
       width="1.5"
       height="1.5"
       x="-0.25"
       y="-0.25">
      <feGaussianBlur
         id="feGaussianBlur68126"
         in="SourceAlpha"
         stdDeviation="8.3"
         result="blur" />
      <feColorMatrix
         id="feColorMatrix68128"
         result="bluralpha"
         type="matrix"
         values="1 0 0 0 0 0 1 0 0 0 0 0 1 0 0 0 0 0 0.687 0 " />
      <feOffset
         id="feOffset68130"
         in="bluralpha"
         dx="-1.08247e-15"
         dy="15.8"
         result="offsetBlur" />
      <feMerge
         id="feMerge68132">
        <feMergeNode
           id="feMergeNode68134"
           in="offsetBlur" />
        <feMergeNode
           id="feMergeNode68136"
           in="SourceGraphic" />
      </feMerge>
    </filter>
  </defs>
  <sodipodi:namedview
     id="base"
     pagecolor="#ffffff"
     bordercolor="#666666"
     borderopacity="1.0"
     inkscape:pageopacity="0.0"
     inkscape:pageshadow="2"
     inkscape:zoom="0.35"
     inkscape:cx="320.57297"
     inkscape:cy="-85.234265"
     inkscape:document-units="px"
     inkscape:current-layer="layer1"
     showgrid="false"
     fit-margin-top="0"
     fit-margin-left="0"
     fit-margin-right="0"
     fit-margin-bottom="0"
     inkscape:window-width="483"
     inkscape:window-height="424"
     inkscape:window-x="20"
     inkscape:window-y="20"
     inkscape:window-maximized="0" />
  <metadata
     id="metadata7289">
    <rdf:RDF>
      <cc:Work
         rdf:about="">
        <dc:format>image/svg+xml</dc:format>
        <dc:type
           rdf:resource="http://purl.org/dc/dcmitype/StillImage" />
        <dc:title></dc:title>
      </cc:Work>
    </rdf:RDF>
  </metadata>
  <g
     inkscape:label="Layer 1"
     inkscape:groupmode="layer"
     id="layer1"
     transform="translate(-54.42703,-400.4536)">
    <g
       style="filter:url(#filter68124)"
       id="g83741"
       transform="matrix(0.12513524,0,0,0.12513524,-16.296467,326.00534)">
      <path
         style="color:#000000;fill:#999999;fill-opacity:1;fill-rule:nonzero;stroke:none;stroke-width:0.40000001;marker:none;visibility:visible;display:inline;overflow:visible;enable-background:accumulate"
         d="m 853.15491,711.3741 c -48.11135,1.14038 -86.81693,40.81168 -86.90625,89.65625 l 0,2.125 c 1.04852,48.78487 40.52003,87.8162 88.875,87.90625 25.41717,0.0473 48.33997,-10.66733 64.59375,-27.875 l 8.15625,-3.34375 198.43754,0.65625 c 8.3156,-10.05569 18.6389,-22.63009 18.4062,-61.75 0.086,-25.64096 -9.5136,-57.81962 -18.4062,-61.125 l -197.78129,0.65625 -13.6875,-3.84375 c -15.73728,-14.30977 -36.55518,-23.01994 -59.40625,-23.0625 -0.7683,-10e-4 -1.51758,-0.0181 -2.28125,0 z"
         id="path83743"
         inkscape:connector-curvature="0" />
      <path
         inkscape:connector-curvature="0"
         id="path83745"
         d="m 853.15491,697.3741 c -48.11135,1.14038 -86.81693,40.81168 -86.90625,89.65625 l 0,2.125 c 1.04852,48.78487 40.52003,87.8162 88.875,87.90625 25.41717,0.0473 48.33997,-10.66733 64.59375,-27.875 l 8.15625,-3.34375 198.43754,0.65625 c 8.3156,-10.05569 18.6389,-22.63009 18.4062,-61.75 0.086,-25.64096 -9.5136,-57.81962 -18.4062,-61.125 l -197.78129,0.65625 -13.6875,-3.84375 c -15.73728,-14.30977 -36.55518,-23.01994 -59.40625,-23.0625 -0.7683,-10e-4 -1.51758,-0.0181 -2.28125,0 z"
         style="color:#000000;fill:#b0bcbf;fill-opacity:1;fill-rule:nonzero;stroke:none;stroke-width:0.40000001;marker:none;visibility:visible;display:inline;overflow:visible;enable-background:accumulate" />
      <path
         inkscape:connector-curvature="0"
         id="path83747"
         d="m 854.71986,724.95072 c -34.29279,-0.0636 -62.12421,27.83827 -62.1875,62.3125 l 0,1.46875 c 0.73126,33.89409 28.24518,60.99994 61.96875,61.0625 21.924,0.0407 41.20093,-11.366 52.28125,-28.59375 -7.12333,-8.92974 -11.48177,-20.12471 -11.75,-32.34375 l 0,-1.25 c 0.0238,-12.73811 4.50784,-24.44812 11.96875,-33.6875 -10.99829,-17.36667 -30.283,-28.92794 -52.28125,-28.96875 z"
         style="color:#000000;fill:#718fb9;fill-opacity:1;fill-rule:nonzero;stroke:none;stroke-width:0.40000001;marker:none;visibility:visible;display:inline;overflow:visible;enable-background:accumulate" />
      <path
         sodipodi:nodetypes="ccccccc"
         inkscape:connector-curvature="0"
         id="path83749"
         d="m 938.39239,763.71388 177.40771,0 c 4.2472,7.66577 6.263,15.33155 5.2565,22.99732 -1.5151,6.77159 -2.1515,12.66454 -5.2565,21.02607 l -177.40771,0 c -6.79795,-7.44673 -5.84142,-14.89347 -5.91359,-22.3402 1.47766,-7.72127 2.74831,-15.64954 5.91359,-21.68319 z"
         style="color:#000000;fill:#e6e6e6;fill-opacity:1;fill-rule:nonzero;stroke:none;stroke-width:0.40000001;marker:none;visibility:visible;display:inline;overflow:visible;enable-background:accumulate" />
      <rect
         y="780.31384"
         x="942.33484"
         height="5.5520158"
         width="18.435375"
         id="rect83751"
         style="color:#000000;fill:#4d4d4d;fill-opacity:1;fill-rule:nonzero;stroke:none;stroke-width:0.40000001;marker:none;visibility:visible;display:inline;overflow:visible;enable-background:accumulate" />
      <rect
         style="color:#000000;fill:#4d4d4d;fill-opacity:1;fill-rule:nonzero;stroke:none;stroke-width:0.40000001;marker:none;visibility:visible;display:inline;overflow:visible;enable-background:accumulate"
         id="rect83753"
         width="18.435375"
         height="5.5520158"
         x="942.33484"
         y="787.84875" />
      <rect
         y="795.38367"
         x="942.33484"
         height="5.5520158"
         width="18.435375"
         id="rect83755"
         style="color:#000000;fill:#4d4d4d;fill-opacity:1;fill-rule:nonzero;stroke:none;stroke-width:0.40000001;marker:none;visibility:visible;display:inline;overflow:visible;enable-background:accumulate" />
      <text
         sodipodi:linespacing="125%"
         id="text83757"
         y="797.98022"
         x="980.90613"
         style="font-size:29.10012627px;font-style:normal;font-variant:normal;font-weight:normal;font-stretch:normal;text-align:start;line-height:125%;letter-spacing:0px;word-spacing:0px;writing-mode:lr-tb;text-anchor:start;fill:#333333;fill-opacity:1;stroke:none;font-family:Andale Mono;-inkscape-font-specification:Andale Mono"
         xml:space="preserve"><tspan
           style="font-style:normal;font-variant:normal;font-weight:normal;font-stretch:normal;fill:#333333;font-family:OCR A Std;-inkscape-font-specification:OCR A Std"
           y="797.98022"
           x="980.90613"
           id="tspan83759"
           sodipodi:role="line">159759</tspan></text>
      <rect
         ry="8.6732645"
         y="814.30792"
         x="1025.7821"
         height="19.711966"
         width="89.360909"
         id="rect83761"
         style="color:#000000;fill:#718fb9;fill-opacity:1;fill-rule:nonzero;stroke:none;stroke-width:0.40000001;marker:none;visibility:visible;display:inline;overflow:visible;enable-background:accumulate" />
      <text
         transform="scale(0.93553438,1.0689078)"
         sodipodi:linespacing="125%"
         id="text83763"
         y="751.40472"
         x="865.45776"
         style="font-size:41.65380859px;font-style:normal;font-variant:normal;font-weight:normal;font-stretch:normal;text-align:start;line-height:125%;letter-spacing:0px;word-spacing:0px;writing-mode:lr-tb;text-anchor:start;fill:#333333;fill-opacity:1;stroke:none;font-family:Optima;-inkscape-font-specification:Optima"
         xml:space="preserve"><tspan
           y="751.40472"
           x="865.45776"
           id="tspan83765"
           sodipodi:role="line">OTP</tspan></text>
      <text
         sodipodi:linespacing="125%"
         id="text83767"
         y="827.85516"
         x="1050.6666"
         style="font-size:11.33175373px;font-style:normal;font-variant:normal;font-weight:normal;font-stretch:normal;text-align:start;line-height:125%;letter-spacing:0px;word-spacing:0px;writing-mode:lr-tb;text-anchor:start;fill:#333333;fill-opacity:1;stroke:none;font-family:Optima;-inkscape-font-specification:Optima"
         xml:space="preserve"><tspan
           y="827.85516"
           x="1050.6666"
           id="tspan83769"
           sodipodi:role="line">TOKEN</tspan></text>
    </g>
    <g
       id="g31259"
       transform="matrix(0.36614227,0,0,0.36614227,57.676893,403.6987)"
       style="filter:url(#filter67690)">
      <path
         id="path31261"
         d="m 108.737,54.875 c 0,29.752 -24.121,53.875 -53.875,53.875 C 25.107,108.75 0.987,84.627 0.987,54.875 0.987,25.122 25.107,1 54.862,1 c 29.754,0 53.875,24.122 53.875,53.875"
         inkscape:connector-curvature="0"
         style="fill:#37e8d7" />
      <g
         id="g31263">
        <path
           id="path31265"
           d="m 74.967,38.774 c 0,-11.104 -9.002,-20.106 -20.105,-20.106 -11.105,0 -20.106,9.003 -20.106,20.106 0,5.552 2.251,10.579 5.889,14.216 -8.708,27.142 -15.103,47.083 -15.103,47.083 8.44,5.485 18.508,8.676 29.321,8.676 10.812,0 20.881,-3.191 29.318,-8.676 0,0 -5.548,-17.768 -14.802,-47.391 3.461,-3.61 5.588,-8.511 5.588,-13.908"
           inkscape:connector-curvature="0"
           style="fill:#ffffff" />
        <g
           id="g31267">
          <path
             id="path31269"
             d="m 48.367,31.55 c 0,-3.489 -1.135,-5.473 -3.119,-5.473 -1.982,0 -3.121,1.984 -3.121,5.473 0,3.532 1.139,5.517 3.121,5.517 1.984,-10e-4 3.119,-1.985 3.119,-5.517"
             inkscape:connector-curvature="0"
             style="fill:#0e4160" />
          <path
             id="path31271"
             d="m 49.773,105.925 c 0,-3.491 -1.136,-5.475 -3.119,-5.475 -1.985,0 -3.121,1.983 -3.121,5.475 0,0.592 0.035,1.137 0.098,1.644 1.924,0.407 3.89,0.713 5.885,0.91 0.167,-0.732 0.257,-1.581 0.257,-2.554"
             inkscape:connector-curvature="0"
             style="fill:#0e4160" />
          <path
             id="path31273"
             d="m 65.845,37.066 c 1.982,0 3.121,-1.984 3.121,-5.517 0,-3.489 -1.139,-5.473 -3.121,-5.473 -1.983,0 -3.119,1.984 -3.119,5.473 0,3.533 1.136,5.517 3.119,5.517"
             inkscape:connector-curvature="0"
             style="fill:#0e4160" />
          <path
             id="path31275"
             d="m 64.133,81.132 c 0,3.533 1.134,5.515 3.117,5.515 1.983,0 3.121,-1.982 3.121,-5.515 0,-3.491 -1.138,-5.474 -3.121,-5.474 -1.982,0 -3.117,1.984 -3.117,5.474"
             inkscape:connector-curvature="0"
             style="fill:#0e4160" />
          <path
             id="path31277"
             d="m 46.654,75.661 c -1.983,0 -3.121,1.983 -3.121,5.474 0,3.533 1.138,5.513 3.121,5.513 1.982,0 3.119,-1.98 3.119,-5.513 0,-3.491 -1.136,-5.474 -3.119,-5.474"
             inkscape:connector-curvature="0"
             style="fill:#0e4160" />
          <path
             id="path31279"
             d="m 74.585,100.45 c -1.983,0 -3.12,1.983 -3.12,5.472 l 0.005,0.206 c 2.074,-0.67 4.097,-1.46 6.053,-2.368 -0.388,-2.132 -1.412,-3.31 -2.938,-3.31"
             inkscape:connector-curvature="0"
             style="fill:#0e4160" />
          <path
             id="path31281"
             d="m 47.315,56.341 c 0,-4.668 1.921,-7.438 5.267,-7.438 3.348,0 5.27,2.769 5.27,7.438 0,4.648 -1.921,7.436 -5.27,7.436 -3.346,0 -5.267,-2.787 -5.267,-7.436 m -0.661,32.228 c -3.349,0 -5.271,-2.788 -5.271,-7.435 0,-4.668 1.921,-7.437 5.271,-7.437 3.344,0 5.266,2.769 5.266,7.437 0,4.648 -1.921,7.435 -5.266,7.435 M 39.983,31.551 c 0,-4.668 1.919,-7.438 5.266,-7.438 3.347,0 5.267,2.769 5.267,7.438 0,4.647 -1.919,7.436 -5.267,7.436 -3.347,0 -5.266,-2.789 -5.266,-7.436 m 12.704,-4.504 2.704,-2.458 c 0.229,-0.187 0.434,-0.27 0.723,-0.27 h 0.643 c 0.207,0 0.371,0.187 0.371,0.392 v 13.657 c 0,0.227 -0.164,0.412 -0.371,0.412 h -1.299 c -0.23,0 -0.416,-0.186 -0.416,-0.412 V 27.563 l -1.692,0.807 -0.476,-0.146 -0.25,-0.743 0.063,-0.434 z m 5.847,47.248 V 87.95 c 0,0.228 -0.167,0.414 -0.373,0.414 h -1.299 c -0.229,0 -0.416,-0.187 -0.416,-0.414 V 77.146 l -1.694,0.803 -0.477,-0.142 -0.245,-0.744 0.061,-0.432 2.705,-2.459 c 0.228,-0.185 0.434,-0.268 0.722,-0.268 h 0.643 c 0.207,0.001 0.373,0.185 0.373,0.391 M 60.02,51.838 62.726,49.38 c 0.229,-0.187 0.436,-0.269 0.724,-0.269 h 0.642 c 0.205,0 0.369,0.186 0.369,0.394 v 13.653 c 0,0.228 -0.164,0.414 -0.369,0.414 H 62.79 c -0.228,0 -0.412,-0.186 -0.412,-0.414 V 52.354 l -1.694,0.806 -0.477,-0.144 -0.25,-0.743 0.063,-0.435 z m 5.825,-27.725 c 3.348,0 5.268,2.769 5.268,7.438 0,4.647 -1.919,7.436 -5.268,7.436 -3.345,0 -5.267,-2.789 -5.267,-7.436 10e-4,-4.669 1.922,-7.438 5.267,-7.438 m 6.674,57.021 c 0,4.647 -1.919,7.435 -5.269,7.435 -3.344,0 -5.269,-2.788 -5.269,-7.435 0,-4.668 1.924,-7.437 5.269,-7.437 3.349,0 5.269,2.769 5.269,7.437 M 37.935,87.95 c 0,0.228 -0.165,0.414 -0.373,0.414 h -1.3 c -0.228,0 -0.413,-0.187 -0.413,-0.414 V 77.146 l -1.696,0.803 -0.475,-0.142 -0.245,-0.744 0.061,-0.432 2.705,-2.459 c 0.229,-0.185 0.434,-0.268 0.723,-0.268 h 0.639 c 0.208,0 0.373,0.184 0.373,0.39 V 87.95 z m 18.511,13.988 -1.694,0.806 -0.477,-0.145 -0.245,-0.744 0.061,-0.433 2.705,-2.461 c 0.228,-0.184 0.434,-0.267 0.722,-0.267 h 0.643 c 0.206,0 0.373,0.186 0.373,0.392 v 9.532 c 1.773,-0.118 3.522,-0.329 5.244,-0.617 v -6.063 l -1.694,0.806 -0.474,-0.144 -0.247,-0.744 0.063,-0.433 2.705,-2.461 c 0.229,-0.184 0.436,-0.267 0.725,-0.267 h 0.639 c 0.206,0 0.372,0.186 0.372,0.392 v 8.525 c 1.174,-0.241 2.332,-0.525 3.475,-0.84 -0.016,-0.276 -0.022,-0.556 -0.022,-0.845 0,-4.67 1.919,-7.437 5.266,-7.437 2.508,0 4.218,1.554 4.913,4.299 1.609,-0.828 3.174,-1.731 4.682,-2.714 h 0.002 c 0,0 -1.269,-4.056 -3.593,-11.508 l -0.075,0.004 c -3.346,0 -5.268,-2.788 -5.268,-7.435 0,-2.293 0.466,-4.121 1.332,-5.397 -1.418,-4.546 -3.018,-9.663 -4.779,-15.31 v 2.731 c 0,0.228 -0.167,0.414 -0.373,0.414 h -1.305 c -0.225,0 -0.412,-0.186 -0.412,-0.414 v -9.411 c -0.111,-0.355 -0.223,-0.704 -0.333,-1.065 l 0.28,-0.302 -1.641,0.779 -0.477,-0.144 -0.247,-0.743 0.063,-0.436 2.706,-2.458 c 0.227,-0.187 0.434,-0.269 0.722,-0.269 h 0.644 c 0.206,0 0.373,0.186 0.373,0.394 v 0.103 c 2.002,-3.125 3.166,-6.844 3.166,-10.834 0,-0.831 -0.055,-1.649 -0.154,-2.454 -0.561,-1.084 -0.885,-2.474 -0.95,-4.126 -2.729,-7.872 -10.203,-13.524 -19,-13.524 -7.709,0 -14.398,4.337 -17.772,10.704 0.104,0.669 0.162,1.394 0.162,2.177 0,3.14 -0.877,5.428 -2.478,6.583 -0.006,0.214 -0.018,0.426 -0.018,0.64 0,4.949 1.793,9.478 4.759,12.981 l 2.613,-2.375 c 0.229,-0.187 0.438,-0.269 0.727,-0.269 h 0.637 c 0.208,0 0.373,0.186 0.373,0.394 v 13.653 c 0,0.228 -0.164,0.414 -0.373,0.414 h -1.298 c -0.229,0 -0.416,-0.186 -0.416,-0.414 V 52.354 l -1.197,0.572 0.063,0.064 c -3.616,11.276 -6.833,21.3 -9.36,29.177 -0.128,1.946 -0.635,3.504 -1.474,4.597 -2.675,8.346 -4.269,13.31 -4.269,13.31 0.412,0.267 0.828,0.523 1.244,0.779 l 2.079,-1.892 c 0.229,-0.184 0.436,-0.267 0.728,-0.267 h 0.639 c 0.205,0 0.369,0.186 0.369,0.392 v 3.896 c 1.7,0.86 3.451,1.631 5.25,2.309 v -3.353 l -1.696,0.806 -0.475,-0.145 -0.245,-0.744 0.061,-0.433 2.705,-2.461 c 0.229,-0.184 0.434,-0.267 0.723,-0.267 h 0.639 c 0.208,0 0.373,0.186 0.373,0.392 v 6.94 c 1.151,0.38 2.315,0.725 3.498,1.028 -0.026,-0.368 -0.048,-0.74 -0.048,-1.129 0,-4.67 1.921,-7.437 5.271,-7.437 3.344,0 5.266,2.767 5.266,7.437 0,0.996 -0.092,1.9 -0.267,2.718 1.064,0.064 2.131,0.105 3.208,0.105 0.529,0 1.06,-0.018 1.584,-0.03 v -6.78 z"
             inkscape:connector-curvature="0"
             style="fill:#0e4160" />
          <path
             id="path31283"
             d="m 79.968,86.589 c -0.713,-2.283 -1.512,-4.835 -2.39,-7.647 -0.118,0.646 -0.182,1.376 -0.182,2.191 0,3.195 0.929,5.117 2.572,5.456"
             inkscape:connector-curvature="0"
             style="fill:#0e4160" />
          <path
             id="path31285"
             d="m 52.582,50.868 c -1.983,0 -3.12,1.983 -3.12,5.475 0,3.533 1.136,5.516 3.12,5.516 1.984,0 3.121,-1.983 3.121,-5.516 0,-3.492 -1.137,-5.475 -3.121,-5.475"
             inkscape:connector-curvature="0"
             style="fill:#0e4160" />
        </g>
      </g>
    </g>
  </g>
</svg>
