<?xml version="1.0" encoding="UTF-8" standalone="no"?>
<!-- Created with Inkscape (http://www.inkscape.org/) -->

<svg
   xmlns:dc="http://purl.org/dc/elements/1.1/"
   xmlns:cc="http://creativecommons.org/ns#"
   xmlns:rdf="http://www.w3.org/1999/02/22-rdf-syntax-ns#"
   xmlns:svg="http://www.w3.org/2000/svg"
   xmlns="http://www.w3.org/2000/svg"
   xmlns:xlink="http://www.w3.org/1999/xlink"
   xmlns:sodipodi="http://sodipodi.sourceforge.net/DTD/sodipodi-0.dtd"
   xmlns:inkscape="http://www.inkscape.org/namespaces/inkscape"
   width="40.592781"
   height="40.592781"
   id="svg6577"
   version="1.1"
   inkscape:version="0.48.2 r9819"
   sodipodi:docname="New document 5">
  <defs
     id="defs6579">
    <radialGradient
       r="67.322754"
       fy="398.35724"
       fx="344.65146"
       cy="398.35724"
       cx="344.65146"
       gradientTransform="matrix(0.9943207,0.9646131,-1.0560621,1.0885861,418.86361,-361.64337)"
       gradientUnits="userSpaceOnUse"
       id="radialGradient2228"
       xlink:href="#linearGradient3215"
       inkscape:collect="always" />
    <linearGradient
       id="linearGradient3215">
      <stop
         id="stop3217"
         offset="0"
         style="stop-color:#1a1a1a;stop-opacity:0.6855346;" />
      <stop
         id="stop3219"
         offset="1"
         style="stop-color:#1a1a1a;stop-opacity:0;" />
    </linearGradient>
    <radialGradient
       r="67.322754"
       fy="505.44727"
       fx="348.69501"
       cy="505.44727"
       cx="348.69501"
       gradientTransform="matrix(0.5041447,0.5041447,-1.0724474,1.0724474,594.3307,-196.51329)"
       gradientUnits="userSpaceOnUse"
       id="radialGradient2230"
       xlink:href="#linearGradient3234"
       inkscape:collect="always" />
    <linearGradient
       id="linearGradient3234">
      <stop
         style="stop-color:#c7c7c7;stop-opacity:0.65408808;"
         offset="0"
         id="stop3236" />
      <stop
         style="stop-color:#ffffff;stop-opacity:0;"
         offset="1"
         id="stop3238" />
    </linearGradient>
    <linearGradient
       y2="415.03455"
       x2="364.52386"
       y1="521.34509"
       x1="228.05783"
       gradientUnits="userSpaceOnUse"
       id="linearGradient2232"
       xlink:href="#linearGradient3203"
       inkscape:collect="always" />
    <linearGradient
       id="linearGradient3203">
      <stop
         id="stop3205"
         offset="0"
         style="stop-color:#f9f9f9;stop-opacity:0.52830189;" />
      <stop
         id="stop3207"
         offset="1"
         style="stop-color:#737373;stop-opacity:0.44654089;" />
    </linearGradient>
    <radialGradient
       r="68.158737"
       fy="387.57217"
       fx="310.87253"
       cy="387.57217"
       cx="310.87253"
       gradientTransform="matrix(1.8465684,0,0,1.8465684,-263.17486,-328.10636)"
       gradientUnits="userSpaceOnUse"
       id="radialGradient2234"
       xlink:href="#linearGradient3234"
       inkscape:collect="always" />
    <radialGradient
       r="68.158737"
       fy="465.10486"
       fx="308.52896"
       cy="465.10486"
       cx="308.52896"
       gradientTransform="matrix(1.8465684,0,0,1.8465684,-263.17486,-328.10636)"
       gradientUnits="userSpaceOnUse"
       id="radialGradient2236"
       xlink:href="#linearGradient3215"
       inkscape:collect="always" />
  </defs>
  <sodipodi:namedview
     id="base"
     pagecolor="#ffffff"
     bordercolor="#666666"
     borderopacity="1.0"
     inkscape:pageopacity="0.0"
     inkscape:pageshadow="2"
     inkscape:zoom="0.35"
     inkscape:cx="109.58152"
     inkscape:cy="-62.558487"
     inkscape:document-units="px"
     inkscape:current-layer="layer1"
     showgrid="false"
     fit-margin-top="0"
     fit-margin-left="0"
     fit-margin-right="0"
     fit-margin-bottom="0"
     inkscape:window-width="483"
     inkscape:window-height="424"
     inkscape:window-x="20"
     inkscape:window-y="20"
     inkscape:window-maximized="0" />
  <metadata
     id="metadata6582">
    <rdf:RDF>
      <cc:Work
         rdf:about="">
        <dc:format>image/svg+xml</dc:format>
        <dc:type
           rdf:resource="http://purl.org/dc/dcmitype/StillImage" />
        <dc:title></dc:title>
      </cc:Work>
    </rdf:RDF>
  </metadata>
  <g
     inkscape:label="Layer 1"
     inkscape:groupmode="layer"
     id="layer1"
     transform="translate(-265.41848,-429.21091)">
    <g
       id="g3776"
       transform="matrix(0.31068382,0,0,0.31068382,264.74313,428.53388)">
      <g
         transform="translate(-201.85715,-384.98783)"
         style="display:inline"
         id="layer2" />
      <g
         transform="translate(-201.85715,-384.98783)"
         id="layer3" />
      <g
         transform="translate(-201.85715,-384.98783)"
         id="layer4">
        <g
           transform="translate(2.1772501,2.17725)"
           id="g2207">
          <path
             sodipodi:type="arc"
             style="opacity:0.98999999;fill:#f2f2f2;fill-opacity:0.14485982;stroke:none;display:inline"
             id="path3256"
             sodipodi:cx="306.54498"
             sodipodi:cy="445.63333"
             sodipodi:rx="64.822754"
             sodipodi:ry="64.822754"
             d="m 371.36774,445.63333 c 0,35.80062 -29.02214,64.82276 -64.82276,64.82276 -35.80062,0 -64.82275,-29.02214 -64.82275,-64.82276 0,-35.80062 29.02213,-64.82275 64.82275,-64.82275 35.80062,0 64.82276,29.02213 64.82276,64.82275 z"
             transform="translate(-39.365083,4.6772487)" />
          <path
             sodipodi:type="arc"
             style="opacity:0.98999999;fill:url(#radialGradient2228);fill-opacity:1;stroke:none;display:inline"
             id="path2226"
             sodipodi:cx="306.54498"
             sodipodi:cy="445.63333"
             sodipodi:rx="64.822754"
             sodipodi:ry="64.822754"
             d="m 371.36774,445.63333 c 0,35.80062 -29.02214,64.82276 -64.82276,64.82276 -35.80062,0 -64.82275,-29.02214 -64.82275,-64.82276 0,-35.80062 29.02213,-64.82275 64.82275,-64.82275 35.80062,0 64.82276,29.02213 64.82276,64.82275 z"
             transform="translate(-39.365083,4.6772487)" />
          <path
             d="m 371.36774,445.63333 c 0,35.80062 -29.02214,64.82276 -64.82276,64.82276 -35.80062,0 -64.82275,-29.02214 -64.82275,-64.82276 0,-35.80062 29.02213,-64.82275 64.82275,-64.82275 35.80062,0 64.82276,29.02213 64.82276,64.82275 z"
             sodipodi:ry="64.822754"
             sodipodi:rx="64.822754"
             sodipodi:cy="445.63333"
             sodipodi:cx="306.54498"
             id="path3232"
             style="opacity:0.98999999;fill:url(#radialGradient2230);fill-opacity:1;stroke:url(#linearGradient2232);stroke-width:1;stroke-linecap:butt;stroke-linejoin:round;stroke-miterlimit:4;stroke-opacity:0.52803799;stroke-dasharray:none;display:inline"
             sodipodi:type="arc"
             transform="translate(-39.365083,4.6772487)" />
          <path
             sodipodi:type="arc"
             style="opacity:0.98999999;fill:url(#radialGradient2234);fill-opacity:1;stroke:#000000;stroke-width:2.66878533;stroke-linecap:butt;stroke-linejoin:round;stroke-miterlimit:4;stroke-opacity:1;stroke-dasharray:none"
             id="path3201"
             sodipodi:cx="306.54498"
             sodipodi:cy="445.63333"
             sodipodi:rx="64.822754"
             sodipodi:ry="64.822754"
             d="m 371.36774,445.63333 c 0,35.80062 -29.02214,64.82276 -64.82276,64.82276 -35.80062,0 -64.82275,-29.02214 -64.82275,-64.82276 0,-35.80062 29.02213,-64.82275 64.82275,-64.82275 35.80062,0 64.82276,29.02213 64.82276,64.82275 z"
             transform="matrix(0.7494046,0,0,0.7494046,37.453677,116.3509)" />
          <path
             transform="matrix(0.7494046,0,0,0.7494046,37.453677,116.3509)"
             d="m 371.36774,445.63333 c 0,35.80062 -29.02214,64.82276 -64.82276,64.82276 -35.80062,0 -64.82275,-29.02214 -64.82275,-64.82276 0,-35.80062 29.02213,-64.82275 64.82275,-64.82275 35.80062,0 64.82276,29.02213 64.82276,64.82275 z"
             sodipodi:ry="64.822754"
             sodipodi:rx="64.822754"
             sodipodi:cy="445.63333"
             sodipodi:cx="306.54498"
             id="path3252"
             style="opacity:0.98999999;fill:url(#radialGradient2236);fill-opacity:1;stroke:none"
             sodipodi:type="arc" />
          <path
             id="path3281"
             style="opacity:0.98999999;fill:#ffffff;fill-opacity:1;stroke:none"
             d="m 251.04632,432.9181 c -1.17543,0.0223 -2.28155,0.56051 -3.02449,1.47165 -7.83873,9.34182 -7.83873,22.8619 0,32.20373 8.86114,10.5603 24.72881,11.94653 35.28911,3.08538 10.56031,-8.86114 11.94654,-24.72881 3.08539,-35.28911 -0.88944,-1.18351 -2.35979,-1.77902 -3.82213,-1.54803 -1.46233,0.23098 -2.67754,1.25071 -3.15889,2.65074 -0.48135,1.40003 -0.15013,2.95144 0.86099,4.03283 6.07884,7.24448 5.13342,17.94456 -2.11105,24.0234 -7.24448,6.07884 -17.94456,5.14357 -24.0234,-2.10091 -5.44126,-6.48465 -5.44126,-15.43784 0,-21.92249 1.02608,-1.19402 1.25642,-2.87883 0.5885,-4.30446 -0.66791,-1.42562 -2.10989,-2.32693 -3.68403,-2.30273 z m 16.0886,-6.62467 c -1.06632,0.008 -2.0852,0.442 -2.83037,1.20478 -0.74517,0.76278 -1.15497,1.79149 -1.13838,2.85772 l 0,25.71875 c -0.0204,1.44254 0.7375,2.78433 1.98349,3.51155 1.24599,0.72723 2.78703,0.72723 4.03302,0 1.24599,-0.72722 2.00389,-2.06901 1.98349,-3.51155 l 0,-25.71875 c 0.0168,-1.07706 -0.40156,-2.11537 -1.16031,-2.87999 -0.75874,-0.76462 -1.79378,-1.19095 -2.87094,-1.18251 z"
             inkscape:connector-curvature="0" />
          <path
             id="path3224"
             style="opacity:0.98999999;fill:#2b0000;fill-opacity:1;stroke:none"
             d="m 251.04632,432.73942 c -1.17543,0.0223 -2.28155,0.56051 -3.02449,1.47165 -7.83873,9.34182 -7.83873,22.8619 0,32.20373 8.86114,10.5603 24.72881,11.94653 35.28911,3.08538 10.56031,-8.86114 11.94654,-24.72881 3.08539,-35.28911 -0.88944,-1.18351 -2.35979,-1.77902 -3.82213,-1.54803 -1.46233,0.23098 -2.67754,1.25071 -3.15889,2.65074 -0.48135,1.40003 -0.15013,2.95144 0.86099,4.03283 6.07884,7.24448 5.13342,17.94456 -2.11105,24.0234 -7.24448,6.07884 -17.94456,5.14357 -24.0234,-2.10091 -5.44126,-6.48465 -5.44126,-15.43784 0,-21.92249 1.02608,-1.19402 1.25642,-2.87883 0.5885,-4.30446 -0.66791,-1.42562 -2.10989,-2.32693 -3.68403,-2.30273 z m 16.0886,-6.62467 c -1.06632,0.008 -2.0852,0.442 -2.83037,1.20478 -0.74517,0.76278 -1.15497,1.79149 -1.13838,2.85772 l 0,25.71875 c -0.0204,1.44254 0.7375,2.78433 1.98349,3.51155 1.24599,0.72723 2.78703,0.72723 4.03302,0 1.24599,-0.72722 2.00389,-2.06901 1.98349,-3.51155 l 0,-25.71875 c 0.0168,-1.07706 -0.40156,-2.11537 -1.16031,-2.87999 -0.75874,-0.76462 -1.79378,-1.19095 -2.87094,-1.18251 z"
             inkscape:connector-curvature="0" />
          <path
             d="m 251.04632,432.73942 c -1.17543,0.0223 -2.28155,0.56051 -3.02449,1.47165 -7.83873,9.34182 -7.83873,22.8619 0,32.20373 8.86114,10.5603 24.72881,11.94653 35.28911,3.08538 10.56031,-8.86114 11.94654,-24.72881 3.08539,-35.28911 -0.88944,-1.18351 -2.35979,-1.77902 -3.82213,-1.54803 -1.46233,0.23098 -2.67754,1.25071 -3.15889,2.65074 -0.48135,1.40003 -0.15013,2.95144 0.86099,4.03283 6.07884,7.24448 5.13342,17.94456 -2.11105,24.0234 -7.24448,6.07884 -17.94456,5.14357 -24.0234,-2.10091 -5.44126,-6.48465 -5.44126,-15.43784 0,-21.92249 1.02608,-1.19402 1.25642,-2.87883 0.5885,-4.30446 -0.66791,-1.42562 -2.10989,-2.32693 -3.68403,-2.30273 z m 16.0886,-6.62467 c -1.06632,0.008 -2.0852,0.442 -2.83037,1.20478 -0.74517,0.76278 -1.15497,1.79149 -1.13838,2.85772 l 0,25.71875 c -0.0204,1.44254 0.7375,2.78433 1.98349,3.51155 1.24599,0.72723 2.78703,0.72723 4.03302,0 1.24599,-0.72722 2.00389,-2.06901 1.98349,-3.51155 l 0,-25.71875 c 0.0168,-1.07706 -0.40156,-2.11537 -1.16031,-2.87999 -0.75874,-0.76462 -1.79378,-1.19095 -2.87094,-1.18251 z"
             style="opacity:0.98999999;fill:none;stroke:none"
             id="path3271"
             inkscape:connector-curvature="0" />
        </g>
      </g>
    </g>
  </g>
</svg>
