<?xml version="1.0" encoding="UTF-8" standalone="no"?>
<!-- Created with Inkscape (http://www.inkscape.org/) -->

<svg
   xmlns:dc="http://purl.org/dc/elements/1.1/"
   xmlns:cc="http://creativecommons.org/ns#"
   xmlns:rdf="http://www.w3.org/1999/02/22-rdf-syntax-ns#"
   xmlns:svg="http://www.w3.org/2000/svg"
   xmlns="http://www.w3.org/2000/svg"
   xmlns:xlink="http://www.w3.org/1999/xlink"
   xmlns:sodipodi="http://sodipodi.sourceforge.net/DTD/sodipodi-0.dtd"
   xmlns:inkscape="http://www.inkscape.org/namespaces/inkscape"
   width="51.003784"
   height="64.493736"
   id="svg6316"
   version="1.1"
   inkscape:version="0.48.2 r9819"
   sodipodi:docname="New document 2">
  <defs
     id="defs6318">
    <filter
       color-interpolation-filters="sRGB"
       id="filter68518"
       inkscape:label="Drop shadow"
       width="1.5"
       height="1.5"
       x="-0.25"
       y="-0.25">
      <feGaussianBlur
         id="feGaussianBlur68520"
         in="SourceAlpha"
         stdDeviation="1.6"
         result="blur" />
      <feColorMatrix
         id="feColorMatrix68522"
         result="bluralpha"
         type="matrix"
         values="1 0 0 0 0 0 1 0 0 0 0 0 1 0 0 0 0 0 0.687 0 " />
      <feOffset
         id="feOffset68524"
         in="bluralpha"
         dx="-1.08247e-15"
         dy="4.6"
         result="offsetBlur" />
      <feMerge
         id="feMerge68526">
        <feMergeNode
           id="feMergeNode68528"
           in="offsetBlur" />
        <feMergeNode
           id="feMergeNode68530"
           in="SourceGraphic" />
      </feMerge>
    </filter>
    <linearGradient
       inkscape:collect="always"
       xlink:href="#SVGID_1_-2"
       id="linearGradient68139"
       gradientUnits="userSpaceOnUse"
       x1="397.39139"
       y1="164.27769"
       x2="671.80151"
       y2="453.26251" />
    <linearGradient
       y2="453.26251"
       x2="671.80151"
       y1="164.27769"
       x1="397.39139"
       gradientUnits="userSpaceOnUse"
       id="SVGID_1_-2">
      <stop
         id="stop2991"
         style="stop-color:#EFEBE7"
         offset="0" />
      <stop
         id="stop2993"
         style="stop-color:#E9E4DB"
         offset="0.4888" />
      <stop
         id="stop2995"
         style="stop-color:#C9CACC"
         offset="1" />
    </linearGradient>
  </defs>
  <sodipodi:namedview
     id="base"
     pagecolor="#ffffff"
     bordercolor="#666666"
     borderopacity="1.0"
     inkscape:pageopacity="0.0"
     inkscape:pageshadow="2"
     inkscape:zoom="2.1496046"
     inkscape:cx="33.623164"
     inkscape:cy="31.124382"
     inkscape:document-units="px"
     inkscape:current-layer="layer1"
     showgrid="false"
     fit-margin-top="0"
     fit-margin-left="0"
     fit-margin-right="0"
     fit-margin-bottom="0"
     inkscape:window-width="483"
     inkscape:window-height="424"
     inkscape:window-x="20"
     inkscape:window-y="20"
     inkscape:window-maximized="0" />
  <metadata
     id="metadata6321">
    <rdf:RDF>
      <cc:Work
         rdf:about="">
        <dc:format>image/svg+xml</dc:format>
        <dc:type
           rdf:resource="http://purl.org/dc/dcmitype/StillImage" />
        <dc:title></dc:title>
      </cc:Work>
    </rdf:RDF>
  </metadata>
  <g
     inkscape:label="Layer 1"
     inkscape:groupmode="layer"
     id="layer1"
     transform="translate(-100.21239,-388.68674)">
    <g
       id="g68201"
       style="filter:url(#filter68518)"
       transform="matrix(1.0470347,0,0,1.0470347,-57.187954,-187.1113)">
      <g
         transform="matrix(0.05206363,0,0,0.05206363,155.23874,552.01846)"
         inkscape:label="Layer 1"
         id="layer1-4">
        <g
           id="g3139"
           transform="matrix(1.5,0,0,1.5,-390.64597,128.04725)">
          <g
             id="g2986">
            <g
               id="g2988">
              <linearGradient
                 y2="453.26251"
                 x2="671.80151"
                 y1="164.27769"
                 x1="397.39139"
                 gradientUnits="userSpaceOnUse"
                 id="linearGradient6239">
                <stop
                   id="stop6241"
                   style="stop-color:#EFEBE7"
                   offset="0" />
                <stop
                   id="stop6243"
                   style="stop-color:#E9E4DB"
                   offset="0.4888" />
                <stop
                   id="stop6245"
                   style="stop-color:#C9CACC"
                   offset="1" />
              </linearGradient>
              <path
                 inkscape:connector-curvature="0"
                 id="path2997"
                 d="m 305.134,515.746 c -0.47241,21.56612 22.31104,27.03485 39.49634,25 114.71122,0 229.42244,0 344.13366,0 21.56612,0.47241 27.03485,-22.31104 25,-39.49634 0,-150.80689 0,-301.61377 0,-452.42066 0.47241,-21.566125 -22.31104,-27.034847 -39.49634,-25 -114.71122,0 -229.42244,0 -344.13366,0 -21.56612,-0.472407 -27.03485,22.31104 -25,39.496342 0,150.806888 0,301.613768 0,452.420658 z"
                 style="fill:url(#linearGradient68139)" />
            </g>
            <g
               id="g2999">
              <path
                 inkscape:connector-curvature="0"
                 id="path3001"
                 d="m 358.723,68.102 c 22.81432,3.134803 22.79475,45.3172 3.91875,53.6673 -25.84998,2.88731 -26.48492,-39.814165 -11.24413,-51.955925 l 3.40718,-1.283516 3.9182,-0.427859 0,0 z m 0,5.588 c -23.30438,5.000654 -3.11867,66.66337 9.20625,30.92513 C 368.10686,95.144714 371.6701,76.212288 358.723,73.69 z m -4.645,21.303 c 8.28662,-19.275499 15.20973,18.10194 0,0 z" />
              <path
                 inkscape:connector-curvature="0"
                 id="path3003"
                 d="m 389.7,115.248 c 11.21564,3.16008 12.43937,-3.67174 10.966,-13.20066 0,-8.882116 0,-17.764228 0,-26.64634 -8.10291,5.9709 -18.70655,-1.693493 -6.64727,-4.907491 7.72148,-2.695984 17.26167,-3.178633 13.63227,7.791956 0,12.320845 0,24.641695 0,36.962535 9.31954,-4.4563 16.75531,7.60575 4.22567,5.936 -6.6912,-1.58107 -19.82334,3.27881 -22.17667,-2.64013 0,-1.09863 0,-2.19725 0,-3.29587 z" />
              <path
                 inkscape:connector-curvature="0"
                 id="path3005"
                 d="m 432.759,115.248 c 11.21564,3.16008 12.43937,-3.67174 10.966,-13.20066 0,-8.882116 0,-17.764228 0,-26.64634 -8.10291,5.9709 -18.70655,-1.693493 -6.64727,-4.907491 7.72148,-2.695984 17.26167,-3.178633 13.63227,7.791956 0,12.320845 0,24.641695 0,36.962535 9.31954,-4.4563 16.75531,7.60575 4.22567,5.936 -6.6912,-1.58107 -19.82334,3.27881 -22.17667,-2.64013 0,-1.09863 0,-2.19725 0,-3.29587 z" />
              <path
                 inkscape:connector-curvature="0"
                 id="path3007"
                 d="m 487.903,68.102 c 22.81432,3.134803 22.79475,45.3172 3.91875,53.6673 -25.84998,2.88731 -26.48492,-39.814165 -11.24412,-51.955925 L 483.9848,68.529859 487.903,68.102 z m 0,5.588 c -23.30438,5.000654 -3.11867,66.66337 9.20625,30.92513 C 497.28686,95.144714 500.8501,76.212288 487.903,73.69 z m -4.645,21.303 c 8.28706,-19.27536 15.20926,18.10187 0,0 z" />
              <path
                 inkscape:connector-curvature="0"
                 id="path3009"
                 d="m 518.879,115.248 c 11.21564,3.16008 12.43937,-3.67174 10.966,-13.20066 0,-8.882116 0,-17.764228 0,-26.64634 -8.10291,5.970867 -18.70653,-1.693413 -6.64729,-4.907584 7.72133,-2.696275 17.2605,-3.177885 13.63129,7.792049 0,12.320845 0,24.641695 0,36.962535 9.31954,-4.4563 16.75531,7.60575 4.22567,5.936 -6.6912,-1.58107 -19.82334,3.27881 -22.17667,-2.64013 8.9e-4,-1.09806 -0.002,-2.19949 10e-4,-3.29587 z" />
              <path
                 inkscape:connector-curvature="0"
                 id="path3011"
                 d="m 574.023,68.102 c 22.81442,3.134771 22.79464,45.3175 3.91875,53.66744 -25.85001,2.88697 -26.48491,-39.814215 -11.24412,-51.956065 L 570.1048,68.529859 574.023,68.102 z m 0,5.588 c -23.30438,5.000654 -3.11867,66.66337 9.20625,30.92513 0.17771,-9.470789 3.74081,-28.401963 -9.20625,-30.92513 z m -4.646,21.303 c 8.28653,-19.275429 15.20978,18.10192 0,0 z" />
              <path
                 inkscape:connector-curvature="0"
                 id="path3013"
                 d="m 604.998,115.248 c 11.21564,3.16008 12.43937,-3.67174 10.966,-13.20066 0,-8.882116 0,-17.764228 0,-26.64634 -8.10291,5.970867 -18.70653,-1.693413 -6.64729,-4.907584 7.72133,-2.696275 17.2605,-3.177885 13.63129,7.792049 0,12.320845 0,24.641695 0,36.962535 9.31954,-4.4563 16.75531,7.60575 4.22567,5.936 -6.6912,-1.58107 -19.82334,3.27881 -22.17667,-2.64013 8.9e-4,-1.09806 -0.002,-2.19949 0.001,-3.29587 z" />
              <path
                 inkscape:connector-curvature="0"
                 id="path3015"
                 d="m 660.142,68.102 c 22.81442,3.134771 22.79464,45.3175 3.91875,53.66744 -25.85001,2.88697 -26.48491,-39.814215 -11.24412,-51.956065 L 656.2238,68.529859 660.142,68.102 z m 0,5.588 c -23.30438,5.000654 -3.11867,66.66337 9.20625,30.92513 C 669.52586,95.144714 673.0891,76.212288 660.142,73.69 z m -4.645,21.303 c 8.28637,-19.275378 15.20995,18.10182 0,0 z" />
              <path
                 inkscape:connector-curvature="0"
                 id="path3017"
                 d="m 346.64,201.074 c 11.21564,3.16008 12.43937,-3.67174 10.966,-13.20066 0,-8.88212 0,-17.76423 0,-26.64634 -8.10294,5.97075 -18.70647,-1.69313 -6.64736,-4.90791 7.72131,-2.69684 17.26183,-3.17924 13.63236,7.79138 0,12.32084 0,24.64169 0,36.96253 9.32015,-4.45671 16.75518,7.60667 4.22567,5.937 -6.6912,-1.58107 -19.82334,3.27881 -22.17667,-2.64013 0,-1.09863 0,-2.19725 0,-3.29587 z" />
              <path
                 inkscape:connector-curvature="0"
                 id="path3019"
                 d="m 401.783,153.929 c 22.81476,3.13437 22.79445,45.31639 3.91875,53.66714 -25.8495,2.88684 -26.48521,-39.81454 -11.24412,-51.95589 l 3.40717,-1.28341 3.9182,-0.42784 z m 0,5.587 c -23.30469,4.9995 -3.11843,66.66242 9.20625,30.92425 0.24366,-9.14487 3.60739,-28.78443 -9.20625,-30.92425 z m -4.645,21.303 c 8.2892,-19.2757 15.20747,18.10287 0,0 z" />
              <path
                 inkscape:connector-curvature="0"
                 id="path3021"
                 d="m 432.759,201.074 c 11.21564,3.16008 12.43937,-3.67174 10.966,-13.20066 0,-8.88212 0,-17.76423 0,-26.64634 -8.10294,5.97075 -18.70647,-1.69313 -6.64736,-4.90791 7.72131,-2.69684 17.26183,-3.17924 13.63236,7.79138 0,12.32084 0,24.64169 0,36.96253 9.32015,-4.45671 16.75518,7.60667 4.22567,5.937 -6.6912,-1.58107 -19.82334,3.27881 -22.17667,-2.64013 0,-1.09863 0,-2.19725 0,-3.29587 z" />
              <path
                 inkscape:connector-curvature="0"
                 id="path3023"
                 d="m 487.903,153.929 c 22.81476,3.13437 22.79445,45.31639 3.91875,53.66714 -25.8495,2.88684 -26.48521,-39.81454 -11.24412,-51.95589 l 3.40717,-1.28341 3.9182,-0.42784 z m 0,5.587 c -23.30469,4.9995 -3.11843,66.66242 9.20625,30.92425 0.24366,-9.14487 3.60739,-28.78443 -9.20625,-30.92425 z m -4.645,21.303 c 8.28903,-19.27565 15.20764,18.10278 0,0 z" />
              <path
                 inkscape:connector-curvature="0"
                 id="path3025"
                 d="m 518.879,201.074 c 11.21564,3.16008 12.43937,-3.67174 10.966,-13.20066 0,-8.88212 0,-17.76423 0,-26.64634 -8.10295,5.97072 -18.70645,-1.69305 -6.64738,-4.908 7.72116,-2.69714 17.26066,-3.1785 13.63138,7.79147 0,12.32084 0,24.64169 0,36.96253 9.32015,-4.45671 16.75518,7.60667 4.22567,5.937 -6.6912,-1.58107 -19.82334,3.27881 -22.17667,-2.64013 8.9e-4,-1.09806 -0.002,-2.19949 10e-4,-3.29587 z" />
              <path
                 inkscape:connector-curvature="0"
                 id="path3027"
                 d="m 574.023,153.929 c 22.81476,3.13437 22.79445,45.31639 3.91875,53.66714 -25.8495,2.88684 -26.48521,-39.81454 -11.24412,-51.95589 l 3.40717,-1.28341 3.9182,-0.42784 z m 0,5.587 c -23.30469,4.9995 -3.11843,66.66242 9.20625,30.92425 0.24372,-9.14535 3.6074,-28.78343 -9.20625,-30.92425 z m -4.646,21.303 c 8.2892,-19.2757 15.20747,18.10287 0,0 z" />
              <path
                 inkscape:connector-curvature="0"
                 id="path3029"
                 d="m 604.998,201.074 c 11.21564,3.16008 12.43937,-3.67174 10.966,-13.20066 0,-8.88212 0,-17.76423 0,-26.64634 -8.10295,5.97072 -18.70645,-1.69305 -6.64738,-4.908 7.72116,-2.69714 17.26066,-3.1785 13.63138,7.79147 0,12.32084 0,24.64169 0,36.96253 9.32015,-4.45671 16.75518,7.60667 4.22567,5.937 -6.6912,-1.58107 -19.82334,3.27881 -22.17667,-2.64013 8.9e-4,-1.09806 -0.002,-2.19949 0.001,-3.29587 z" />
              <path
                 inkscape:connector-curvature="0"
                 id="path3031"
                 d="m 660.142,153.929 c 22.81476,3.13437 22.79445,45.31639 3.91875,53.66714 -25.8495,2.88684 -26.48521,-39.81454 -11.24412,-51.95589 l 3.40717,-1.28341 3.9182,-0.42784 z m 0,5.587 c -23.30469,4.9995 -3.11843,66.66242 9.20625,30.92425 0.24366,-9.14487 3.60739,-28.78443 -9.20625,-30.92425 z m -4.645,21.303 c 8.28903,-19.27565 15.20764,18.10278 0,0 z" />
              <path
                 inkscape:connector-curvature="0"
                 id="path3033"
                 d="m 346.64,286.901 c 11.21564,3.16008 12.43937,-3.67174 10.966,-13.20066 0,-8.88212 0,-17.76423 0,-26.64634 -8.10294,5.97075 -18.70647,-1.69313 -6.64736,-4.90791 7.72131,-2.69684 17.26183,-3.17924 13.63236,7.79138 0,12.32084 0,24.64169 0,36.96253 9.32015,-4.45671 16.75518,7.60667 4.22567,5.937 -6.6912,-1.58107 -19.82334,3.27881 -22.17667,-2.64013 0,-1.09863 0,-2.19725 0,-3.29587 z" />
              <path
                 inkscape:connector-curvature="0"
                 id="path3035"
                 d="m 401.783,239.756 c 22.81476,3.13437 22.79445,45.31639 3.91875,53.66714 -25.84971,2.88674 -26.48502,-39.81468 -11.24412,-51.95627 l 3.40717,-1.28317 3.9182,-0.4277 0,0 z m 0,5.587 c -23.30485,4.99949 -3.11815,66.66383 9.20625,30.92463 0.24357,-9.1446 3.60741,-28.78545 -9.20625,-30.92463 z m -4.645,21.303 c 8.28756,-19.27609 15.20897,18.10274 0,0 z" />
              <path
                 inkscape:connector-curvature="0"
                 id="path3037"
                 d="m 432.759,286.901 c 11.21564,3.16008 12.43937,-3.67174 10.966,-13.20066 0,-8.88212 0,-17.76423 0,-26.64634 -8.10294,5.97075 -18.70647,-1.69313 -6.64736,-4.90791 7.72131,-2.69684 17.26183,-3.17924 13.63236,7.79138 0,12.32084 0,24.64169 0,36.96253 9.32015,-4.45671 16.75518,7.60667 4.22567,5.937 -6.6912,-1.58107 -19.82334,3.27881 -22.17667,-2.64013 0,-1.09863 0,-2.19725 0,-3.29587 z" />
              <path
                 inkscape:connector-curvature="0"
                 id="path3039"
                 d="m 487.903,239.756 c 22.81476,3.13437 22.79445,45.31639 3.91875,53.66714 -25.84971,2.88674 -26.48502,-39.81468 -11.24412,-51.95627 l 3.40717,-1.28317 3.9182,-0.4277 0,0 z m 0,5.587 c -23.30485,4.99949 -3.11815,66.66383 9.20625,30.92463 0.24357,-9.1446 3.60741,-28.78545 -9.20625,-30.92463 z m -4.645,21.303 c 8.28784,-19.2759 15.20867,18.10257 0,0 z" />
              <path
                 inkscape:connector-curvature="0"
                 id="path3041"
                 d="m 518.879,286.901 c 11.21564,3.16008 12.43937,-3.67174 10.966,-13.20066 0,-8.88212 0,-17.76423 0,-26.64634 -8.10295,5.97072 -18.70645,-1.69305 -6.64738,-4.908 7.72116,-2.69714 17.26066,-3.1785 13.63138,7.79147 0,12.32084 0,24.64169 0,36.96253 9.32015,-4.45671 16.75518,7.60667 4.22567,5.937 -6.6912,-1.58107 -19.82334,3.27881 -22.17667,-2.64013 8.9e-4,-1.09806 -0.002,-2.19949 10e-4,-3.29587 z" />
              <path
                 inkscape:connector-curvature="0"
                 id="path3043"
                 d="m 561.939,286.901 c 11.21564,3.16008 12.43937,-3.67174 10.966,-13.20066 0,-8.88212 0,-17.76423 0,-26.64634 -8.10294,5.97075 -18.70647,-1.69313 -6.64736,-4.90791 7.72131,-2.69684 17.26183,-3.17924 13.63236,7.79138 0,12.32084 0,24.64169 0,36.96253 9.32015,-4.45671 16.75518,7.60667 4.22567,5.937 -6.6912,-1.58107 -19.82334,3.27881 -22.17667,-2.64013 0,-1.09863 0,-2.19725 0,-3.29587 z" />
              <path
                 inkscape:connector-curvature="0"
                 id="path3045"
                 d="m 604.998,286.901 c 11.21564,3.16008 12.43937,-3.67174 10.966,-13.20066 0,-8.88212 0,-17.76423 0,-26.64634 -8.10295,5.97072 -18.70645,-1.69305 -6.64738,-4.908 7.72116,-2.69714 17.26066,-3.1785 13.63138,7.79147 0,12.32084 0,24.64169 0,36.96253 9.32015,-4.45671 16.75518,7.60667 4.22567,5.937 -6.6912,-1.58107 -19.82334,3.27881 -22.17667,-2.64013 8.9e-4,-1.09806 -0.002,-2.19949 0.001,-3.29587 z" />
              <path
                 inkscape:connector-curvature="0"
                 id="path3047"
                 d="m 660.142,239.756 c 22.81476,3.13437 22.79445,45.31639 3.91875,53.66714 -25.84971,2.88674 -26.48502,-39.81468 -11.24412,-51.95627 l 3.40717,-1.28317 3.9182,-0.4277 0,0 z m 0,5.587 c -23.30485,4.99949 -3.11815,66.66383 9.20625,30.92463 0.24357,-9.1446 3.60741,-28.78545 -9.20625,-30.92463 z m -4.645,21.303 c 8.28714,-19.27592 15.20936,18.10252 0,0 z" />
              <path
                 inkscape:connector-curvature="0"
                 id="path3049"
                 d="m 346.64,372.727 c 11.21564,3.16008 12.43937,-3.67174 10.966,-13.20066 0,-8.88212 0,-17.76423 0,-26.64634 -8.10291,5.9709 -18.70655,-1.69349 -6.64727,-4.90749 7.72148,-2.69598 17.26167,-3.17863 13.63227,7.79196 0,12.32084 0,24.64169 0,36.96253 9.32015,-4.45671 16.75518,7.60667 4.22567,5.937 -6.6912,-1.58107 -19.82334,3.27881 -22.17667,-2.64013 0,-1.09896 0,-2.19791 0,-3.29687 z" />
              <path
                 inkscape:connector-curvature="0"
                 id="path3051"
                 d="m 401.783,325.581 c 22.81476,3.13437 22.79445,45.31639 3.91875,53.66714 -25.8495,2.88684 -26.48521,-39.81454 -11.24412,-51.95589 l 3.40717,-1.28341 3.9182,-0.42784 z m 0,5.588 c -23.30492,4.99991 -3.11805,66.66368 9.20625,30.92463 0.17743,-9.47026 3.74116,-28.40294 -9.20625,-30.92463 z m -4.645,21.303 c 8.28773,-19.27624 15.20875,18.10314 0,0 z" />
              <path
                 inkscape:connector-curvature="0"
                 id="path3053"
                 d="m 432.759,372.727 c 11.21564,3.16008 12.43937,-3.67174 10.966,-13.20066 0,-8.88212 0,-17.76423 0,-26.64634 -8.10291,5.9709 -18.70655,-1.69349 -6.64727,-4.90749 7.72148,-2.69598 17.26167,-3.17863 13.63227,7.79196 0,12.32084 0,24.64169 0,36.96253 9.32015,-4.45671 16.75518,7.60667 4.22567,5.937 -6.6912,-1.58107 -19.82334,3.27881 -22.17667,-2.64013 0,-1.09896 0,-2.19791 0,-3.29687 z" />
              <path
                 inkscape:connector-curvature="0"
                 id="path3055"
                 d="m 475.819,372.727 c 11.21564,3.16008 12.43937,-3.67174 10.966,-13.20066 0,-8.88212 0,-17.76423 0,-26.64634 -8.10291,5.9709 -18.70655,-1.69349 -6.64727,-4.90749 7.72148,-2.69598 17.26167,-3.17863 13.63227,7.79196 0,12.32084 0,24.64169 0,36.96253 9.32015,-4.45671 16.75518,7.60667 4.22567,5.937 -6.6912,-1.58107 -19.82334,3.27881 -22.17667,-2.64013 0,-1.09896 0,-2.19791 0,-3.29687 z" />
              <path
                 inkscape:connector-curvature="0"
                 id="path3057"
                 d="m 530.962,325.581 c 22.81476,3.13437 22.79445,45.31639 3.91875,53.66714 -25.8495,2.88684 -26.48521,-39.81454 -11.24412,-51.95589 l 3.40717,-1.28341 3.9182,-0.42784 z m 0,5.588 c -23.30492,4.99991 -3.11805,66.66368 9.20625,30.92463 0.17743,-9.47026 3.74116,-28.40294 -9.20625,-30.92463 z m -4.645,21.303 c 8.28773,-19.27624 15.20875,18.10314 0,0 z" />
              <path
                 inkscape:connector-curvature="0"
                 id="path3059"
                 d="m 574.023,325.581 c 22.81476,3.13437 22.79445,45.31639 3.91875,53.66714 -25.8495,2.88684 -26.48521,-39.81454 -11.24412,-51.95589 l 3.40717,-1.28341 3.9182,-0.42784 z m 0,5.588 c -23.30492,4.99991 -3.11805,66.66368 9.20625,30.92463 0.17752,-9.47063 3.74111,-28.40206 -9.20625,-30.92463 z m -4.646,21.303 c 8.28748,-19.27612 15.20897,18.10302 0,0 z" />
              <path
                 inkscape:connector-curvature="0"
                 id="path3061"
                 d="m 604.998,372.727 c 11.21564,3.16008 12.43937,-3.67174 10.966,-13.20066 0,-8.88212 0,-17.76423 0,-26.64634 -8.10291,5.97087 -18.70653,-1.69341 -6.64729,-4.90758 7.72133,-2.69628 17.2605,-3.17789 13.63129,7.79205 0,12.32084 0,24.64169 0,36.96253 9.32015,-4.45671 16.75518,7.60667 4.22567,5.937 -6.6912,-1.58107 -19.82334,3.27881 -22.17667,-2.64013 8.9e-4,-1.09839 -0.002,-2.20015 0.001,-3.29687 z" />
              <path
                 inkscape:connector-curvature="0"
                 id="path3063"
                 d="m 648.059,372.727 c 11.21564,3.16008 12.43937,-3.67174 10.966,-13.20066 0,-8.88212 0,-17.76423 0,-26.64634 -8.10291,5.9709 -18.70655,-1.69349 -6.64727,-4.90749 7.72148,-2.69598 17.26167,-3.17863 13.63227,7.79196 0,12.32084 0,24.64169 0,36.96253 9.32015,-4.45671 16.75518,7.60667 4.22567,5.937 -6.6912,-1.58107 -19.82334,3.27881 -22.17667,-2.64013 0,-1.09896 0,-2.19791 0,-3.29687 z" />
              <path
                 inkscape:connector-curvature="0"
                 id="path3065"
                 d="m 346.64,458.554 c 11.21564,3.16008 12.43937,-3.67174 10.966,-13.20066 0,-8.88212 0,-17.76423 0,-26.64634 -8.10291,5.9709 -18.70655,-1.69349 -6.64727,-4.90749 7.72148,-2.69598 17.26167,-3.17863 13.63227,7.79196 0,12.32084 0,24.64169 0,36.96253 9.32015,-4.45671 16.75518,7.60667 4.22567,5.937 -6.6912,-1.58107 -19.82334,3.27881 -22.17667,-2.64013 0,-1.09896 0,-2.19791 0,-3.29687 z" />
              <path
                 inkscape:connector-curvature="0"
                 id="path3067"
                 d="m 401.783,411.408 c 22.81476,3.13437 22.79445,45.31639 3.91875,53.66714 -25.8495,2.88684 -26.48521,-39.81454 -11.24412,-51.95589 l 3.40717,-1.28341 3.9182,-0.42784 z m 0,5.587 c -23.30492,4.99991 -3.11805,66.66368 9.20625,30.92463 0.17746,-9.4705 3.74117,-28.40238 -9.20625,-30.92463 z m -4.645,21.304 c 8.28821,-19.27634 15.20841,18.10342 0,0 z" />
              <path
                 inkscape:connector-curvature="0"
                 id="path3069"
                 d="m 444.843,411.408 c 22.81476,3.13437 22.79445,45.31639 3.91875,53.66714 -25.8495,2.88684 -26.48521,-39.81454 -11.24413,-51.95589 l 3.40718,-1.28341 3.9182,-0.42784 0,0 z m 0,5.587 c -23.30492,4.99991 -3.11805,66.66368 9.20625,30.92463 0.17751,-9.47073 3.74115,-28.40187 -9.20625,-30.92463 z m -4.645,21.304 c 8.28849,-19.27615 15.2081,18.10325 0,0 z" />
            </g>
            <g
               id="g3071">
              <path
                 inkscape:connector-curvature="0"
                 id="path3073"
                 d="m 317.272,500.238 c -0.47141,21.57982 22.32974,27.03387 39.52073,25 106.61142,0 213.22285,0 319.83427,0 21.57982,0.47141 27.03387,-22.32974 25,-39.52073 0,-140.45976 0,-280.91951 0,-421.37927 0.47141,-21.57982 -22.32974,-27.033866 -39.52073,-25 -106.61142,0 -213.22285,0 -319.83427,0 -21.57982,-0.471414 -27.03387,22.329738 -25,39.520731 0,140.459759 0,280.919509 0,421.379269 z"
                 style="fill:none;stroke:#ffffff;stroke-width:3;stroke-miterlimit:10" />
            </g>
          </g>
          <g
             id="g3075">
            <g
               id="g3077">
              <g
                 id="ELLIPSE_3_">
                <g
                   id="XMLID_4_">
                  <g
                     id="g3081">
                    <path
                       inkscape:connector-curvature="0"
                       id="path3083"
                       d="m 709.212,389.404 c 5.30091,25.82555 -39.81175,52.43748 -42.62223,15.75044 -3.95186,-21.10055 27.59641,-51.72144 41.00337,-25.13902 1.11725,2.99496 1.59642,6.20138 1.61886,9.38858 z m -6.708,13.397 c 14.24033,-24.06477 -22.0226,-40.12006 -29.232,-12.18 -13.48779,25.92564 20.32363,40.01699 29.232,12.18 z"
                       style="fill:#ca974d" />
                    <path
                       inkscape:connector-curvature="0"
                       id="path3085"
                       d="m 680.037,324.957 c 33.59694,15.28996 37.86865,59.45763 29.13442,91.14253 -9.97502,37.7089 -38.62719,77.65826 -80.44978,80.92401 -22.50848,1.34547 -41.79291,-16.40873 -47.72864,-37.20054 -12.09486,2.02237 -29.09606,-8.63412 -33.02667,8.87479 -4.00154,13.49195 -14.18714,2.42376 -19.25247,-3.83087 -8.79588,-9.73979 -15.72854,6.67044 -18.666,14.0524 -2.11675,9.25081 -10.81726,16.23112 -17.98586,6.85768 -7.24797,-5.99412 -13.91944,-6.70378 -19.62176,1.561 -8.27147,6.69637 -8.19613,21.8426 -20.31624,23.799 -10.01995,-2.05103 -8.98209,-20.7002 -20.883,-13.244 -5.47979,6.35475 -7.65129,18.67516 -16.828,19.452 -9.99284,-6.52226 -13.30473,19.47673 -23.23149,8.40495 -3.48532,-15.77658 -12.98576,-1.69623 -18.5827,-1.24873 -3.8466,-4.0898 -21.69746,-10.00229 -8.28104,-11.84526 69.52807,-23.83065 139.05615,-47.66131 208.58423,-71.49196 3.18593,-12.31507 -9.67249,-2.00709 -15.67535,-1.36611 -67.80922,23.24037 -135.61843,46.48074 -203.42765,69.72111 1.29374,-9.2493 7.90724,-17.33687 17.56409,-18.40787 C 438.5004,468.10142 505.6377,445.09171 572.775,422.082 c 3.18571,-12.31586 -9.67529,-2.00732 -15.67834,-1.36608 -63.27356,21.68603 -126.54711,43.37205 -189.82066,65.05808 11.19437,-15.29749 31.7125,-16.24229 48.02556,-23.37257 51.55298,-17.84222 103.33854,-35.06784 154.7446,-53.29959 21.44733,-15.95348 21.63073,-50.96211 46.10884,-67.13292 16.6421,-15.42683 41.54595,-26.38636 63.882,-17.01192 z m 20.639,107.546 c 13.0516,-31.01733 15.37142,-74.90615 -13.85521,-97.62722 -26.81735,-18.98733 -62.17205,-0.85325 -79.57304,22.53314 -10.38075,14.89471 -25.87873,33.62169 -16.38659,51.86409 -1.10188,16.17311 3.39144,33.31836 -3.01916,48.62799 0.80033,22.3056 27.80837,37.73118 48.96339,33.61444 30.34499,-5.44252 52.41801,-31.90348 63.87061,-59.01244 z"
                       style="fill:#fbcc34" />
                    <path
                       inkscape:connector-curvature="0"
                       id="path3087"
                       d="m 678.854,330.486 c 31.54995,14.36134 35.55981,55.83925 27.35701,85.59484 -9.50399,36.17243 -37.92586,75.26419 -78.59659,75.98304 -18.50602,-0.25595 -44.83825,-18.52019 -36.94817,-38.7027 3.14546,-14.61344 0.48459,-30.04935 1.13775,-45.01118 -10.45089,-18.85552 8.60862,-38.60189 18.95538,-53.59425 C 626.9177,335.93256 653.75997,320.2026 678.854,330.486 z m 27.306,73.838 c 15.04816,-22.01385 -15.64111,-51.74055 -32.72991,-25.69311 -15.10478,14.05606 -10.39689,52.40119 15.55525,44.22311 8.07011,-3.3292 13.86451,-10.65892 17.17466,-18.53 z"
                       style="fill:#ea9423" />
                    <path
                       inkscape:connector-curvature="0"
                       id="path3089"
                       d="m 696.979,369.525 c -13.78981,-4.54083 -39.26828,24.46715 -28.42364,44.81667 5.2196,8.19016 11.79083,11.85249 0.18603,2.93266 -11.98904,-17.92709 4.53918,-53.89724 28.23761,-47.74933 z"
                       style="fill:#996600" />
                    <path
                       inkscape:connector-curvature="0"
                       id="path3091"
                       d="m 672.421,321.782 c 19.12901,7.05327 -18.26516,-5.50806 -24.44202,1.76231 -34.7879,10.70449 -57.79908,44.16811 -67.06698,77.95969 -18.71109,-7.21153 8.64625,-35.22706 13.63539,-47.23689 C 611.68411,331.0137 642.68865,309.8216 672.421,321.782 z"
                       style="fill:#996600" />
                    <path
                       inkscape:connector-curvature="0"
                       id="path3093"
                       d="m 677.9,330.089 c -14.01816,-6.48291 -39.54664,-1.00153 -53.34814,11.59102 -17.11474,14.88411 -36.0286,36.56261 -35.52713,59.77706 5.59566,11.80991 1.73263,25.81006 3.06904,38.57317 -0.0854,14.18222 -9.14664,28.97011 6.85998,39.36637 10.33434,8.61344 18.77379,12.64229 2.2091,2.50897 -17.02728,-10.00542 -12.15963,-26.06658 -10.01364,-41.24664 -1.26705,-12.96449 2.33978,-27.04579 -2.84041,-39.15019 -1.7643,-22.12289 17.00157,-43.0154 32.41743,-57.91241 C 636.07096,330.4882 658.19681,321.78323 677.9,330.089 z"
                       style="fill:#996600" />
                    <path
                       inkscape:connector-curvature="0"
                       id="path3095"
                       d="m 609.786,493.585 c -16.49245,-5.27964 -30.24077,-17.94627 -35.604,-34.601 14.09951,3.98061 16.289,30.81464 35.604,34.601 z"
                       style="fill:#996600" />
                    <path
                       inkscape:connector-curvature="0"
                       id="path3097"
                       d="m 573.297,398.333 c 17.71867,4.30048 -9.17939,13.35727 -17.03009,15.75587 -59.48398,20.68572 -119.38903,40.31724 -178.60739,61.66797 -8.66074,6.23802 -17.72384,13.38436 -18.49639,22.06142 -5.94664,8.11205 -10.35711,14.29322 1.10806,18.44352 3.88299,2.96346 21.5898,13.33452 8.4322,7.16663 -7.3183,-4.0256 -14.05444,-9.18284 -21.06339,-13.75841 -0.73809,-2.67333 0.98644,-14.99701 8.32822,-21.59305 8.66742,-3.57446 8.30783,-18.03731 22.99483,-19.00789 61.12646,-21.12374 122.48589,-41.62975 183.46561,-63.14259 3.9988,-1.931 7.63346,-4.5638 10.86834,-7.59347 z"
                       style="fill:#c08329" />
                    <path
                       inkscape:connector-curvature="0"
                       id="polygon3099"
                       d="m 572.904,441.165 c -5.98364,-1.32338 2.16812,-15.69664 0,0 z"
                       style="fill:#c08329" />
                    <path
                       inkscape:connector-curvature="0"
                       id="polygon3101"
                       d="m 358.075,514.796 c -1.16338,-2.93484 14.08838,-5.34058 19.3248,-8.06914 64.53307,-22.11862 129.06613,-44.23724 193.5992,-66.35586 1.16731,2.93626 -14.08785,5.34101 -19.32384,8.07002 C 487.14177,470.55935 422.60839,492.67767 358.075,514.796 z"
                       style="fill:#c08329" />
                    <path
                       inkscape:connector-curvature="0"
                       id="polygon3103"
                       d="m 572.778,422.082 c -5.98674,-1.32027 2.15937,-15.69722 0,0 z"
                       style="fill:#c08329" />
                    <path
                       inkscape:connector-curvature="0"
                       id="polygon3105"
                       d="m 361.376,494.535 c -1.16384,-2.93683 14.08842,-5.34071 19.32494,-8.06975 63.38968,-21.72542 126.77937,-43.45083 190.16906,-65.17625 1.17718,2.93234 -14.0865,5.34071 -19.32095,8.06872 C 488.15803,451.08348 424.76702,472.80924 361.376,494.535 z"
                       style="fill:#c08329" />
                    <path
                       inkscape:connector-curvature="0"
                       id="path3107"
                       d="m 570.965,435.09 c 2.23289,9.46859 -11.88114,7.3389 -17.44854,11.27312 -65.78182,22.54662 -131.56364,45.09325 -197.34546,67.63988 -10.80326,-6.30168 7.32258,-6.0326 12.61509,-9.61894 C 436.17906,481.28604 503.57203,458.18802 570.965,435.09 z"
                       style="fill:#ffe89b" />
                    <path
                       inkscape:connector-curvature="0"
                       id="polygon3109"
                       d="m 359.472,493.741 c 3.15484,-9.08172 9.86387,-8.64627 17.79706,-11.39096 64.52198,-22.11401 129.04396,-44.22803 193.56594,-66.34204 2.23484,9.46862 -11.88059,7.33869 -17.44765,11.27279 C 488.7489,449.4342 424.11045,471.5876 359.472,493.741 z"
                       style="fill:#ffe89b" />
                    <path
                       inkscape:connector-curvature="0"
                       id="path3111"
                       d="m 565.635,460.56 c -7.91868,-2.93208 -10.98015,-5.45337 0,0 z"
                       style="fill:#c08329" />
                    <path
                       inkscape:connector-curvature="0"
                       id="path3113"
                       d="m 539.669,475.59 c -7.71249,-1.78159 -12.69516,-7.74851 -17.904,-13.214 7.07067,-2.46595 11.74305,10.04259 17.904,13.214 z"
                       style="fill:#c08329" />
                    <path
                       inkscape:connector-curvature="0"
                       id="path3115"
                       d="m 499.272,490.78 c -4.00289,-0.35793 -21.13601,-11.39479 -9.95391,-6.14613 3.81044,1.16031 6.55009,4.23087 9.95391,6.14613 z"
                       style="fill:#c08329" />
                    <path
                       inkscape:connector-curvature="0"
                       id="polygon3117"
                       d="m 484.444,482.603 c -12.4668,-7.43097 17.11998,7.58643 2.74591,1.14413 -0.9153,-0.38138 -1.83061,-0.76275 -2.74591,-1.14413 z"
                       style="fill:#c08329" />
                    <path
                       inkscape:connector-curvature="0"
                       id="polygon3119"
                       d="m 444.505,507.962 c -13.08797,-7.77686 0.044,-3.02039 5.83476,1.92853 5.08412,3.10907 -4.65806,-1.64645 -5.83476,-1.92853 z"
                       style="fill:#c08329" />
                    <path
                       inkscape:connector-curvature="0"
                       id="path3121"
                       d="m 439.697,496.424 c 8.57768,9.4074 1.42052,12.20471 -4.2702,3.02814 -4.00414,-4.16571 1.6392,-3.08117 4.2702,-3.02814 z"
                       style="fill:#c08329" />
                    <path
                       inkscape:connector-curvature="0"
                       id="path3123"
                       d="m 387.594,518.879 c 9.17442,10.25963 -1.25036,10.70693 -5.25238,1.35559 -3.96193,-3.81691 4.42167,-4.70768 5.25238,-1.35559 z"
                       style="fill:#c08329" />
                    <path
                       inkscape:connector-curvature="0"
                       id="polygon3125"
                       d="m 356.232,487.686 c 4.64305,-3.21753 3.28193,2.13674 0,0 z"
                       style="fill:#c08329" />
                    <path
                       inkscape:connector-curvature="0"
                       id="path3127"
                       d="m 349.547,510.465 c -3.36579,-0.46996 -1.01412,-2.40914 0,0 z"
                       style="fill:#c08329" />
                  </g>
                  <g
                     id="g3129" />
                </g>
              </g>
            </g>
            <path
               inkscape:connector-curvature="0"
               id="path3131"
               d="m 704.945,391.007 c 5.90816,18.26066 -29.68068,38.06375 -28.09878,20.57237 17.61098,-5.10004 11.45944,-31.13382 16.10053,-36.69074 8.08828,0.31113 12.22473,8.96906 11.99825,16.11837 z"
               style="fill:#996600" />
          </g>
        </g>
      </g>
    </g>
  </g>
</svg>
