<?xml version="1.0" encoding="UTF-8" standalone="no"?>
<!-- Created with Inkscape (http://www.inkscape.org/) -->

<svg
   xmlns:dc="http://purl.org/dc/elements/1.1/"
   xmlns:cc="http://creativecommons.org/ns#"
   xmlns:rdf="http://www.w3.org/1999/02/22-rdf-syntax-ns#"
   xmlns:svg="http://www.w3.org/2000/svg"
   xmlns="http://www.w3.org/2000/svg"
   xmlns:sodipodi="http://sodipodi.sourceforge.net/DTD/sodipodi-0.dtd"
   xmlns:inkscape="http://www.inkscape.org/namespaces/inkscape"
   width="60.081776"
   height="62.084499"
   id="svg9946"
   version="1.1"
   inkscape:version="0.48.2 r9819"
   sodipodi:docname="New document 31">
  <defs
     id="defs9948">
    <filter
       color-interpolation-filters="sRGB"
       id="filter67760"
       inkscape:label="Drop shadow"
       width="1.5"
       height="1.5"
       x="-0.25"
       y="-0.25">
      <feGaussianBlur
         id="feGaussianBlur67762"
         in="SourceAlpha"
         stdDeviation="1.7"
         result="blur" />
      <feColorMatrix
         id="feColorMatrix67764"
         result="bluralpha"
         type="matrix"
         values="1 0 0 0 0 0 1 0 0 0 0 0 1 0 0 0 0 0 0.66 0 " />
      <feOffset
         id="feOffset67766"
         in="bluralpha"
         dx="-1.08247e-15"
         dy="5.2"
         result="offsetBlur" />
      <feMerge
         id="feMerge67768">
        <feMergeNode
           id="feMergeNode67770"
           in="offsetBlur" />
        <feMergeNode
           id="feMergeNode67772"
           in="SourceGraphic" />
      </feMerge>
    </filter>
  </defs>
  <sodipodi:namedview
     id="base"
     pagecolor="#ffffff"
     bordercolor="#666666"
     borderopacity="1.0"
     inkscape:pageopacity="0.0"
     inkscape:pageshadow="2"
     inkscape:zoom="0.35"
     inkscape:cx="359.3266"
     inkscape:cy="-83.243459"
     inkscape:document-units="px"
     inkscape:current-layer="layer1"
     showgrid="false"
     fit-margin-top="0"
     fit-margin-left="0"
     fit-margin-right="0"
     fit-margin-bottom="0"
     inkscape:window-width="483"
     inkscape:window-height="424"
     inkscape:window-x="20"
     inkscape:window-y="20"
     inkscape:window-maximized="0" />
  <metadata
     id="metadata9951">
    <rdf:RDF>
      <cc:Work
         rdf:about="">
        <dc:format>image/svg+xml</dc:format>
        <dc:type
           rdf:resource="http://purl.org/dc/dcmitype/StillImage" />
        <dc:title></dc:title>
      </cc:Work>
    </rdf:RDF>
  </metadata>
  <g
     inkscape:label="Layer 1"
     inkscape:groupmode="layer"
     id="layer1"
     transform="translate(-15.673399,-387.03422)">
    <g
       id="g54210"
       transform="matrix(0.73283751,0,0,0.73283751,23.75994,395.35851)"
       style="filter:url(#filter67760)">
      <g
         id="Layer_2_1_">
        <g
           id="Grey_3_">
          <path
             id="path54189"
             d="m 52.449,29.764 c 4.068,-0.005 7.401,-3.295 7.509,-7.352 V 7.55 C 59.958,3.397 56.567,0 52.427,0 H 7.488 c -4.139,0 -7.53,3.397 -7.53,7.55 V 54.448 C -0.042,58.6 3.349,62 7.488,62 h 44.938 c 4.14,0 7.531,-3.399 7.531,-7.551 V 37.118 C 59.85,33.06 56.516,29.773 52.449,29.764 z"
             inkscape:connector-curvature="0"
             style="fill:#dcddde" />
        </g>
      </g>
      <g
         id="Layer_1">
        <path
           id="path54192"
           d="m 47.927,38.663 c 0,0.409 -0.049,1.481 -1.226,1.481 H 12.448 c -1.034,0 -1.075,-0.805 -1.075,-1.219 V 15.848 c 0,-0.411 0.161,-1.263 1.267,-1.263 h 33.775 c 0.936,0 1.513,1.042 1.513,1.454 v 22.624 z"
           inkscape:connector-curvature="0"
           style="fill:#505050" />
        <path
           id="path54194"
           d="m 51.421,44.547 c 0,0.41 -0.333,0.743 -0.741,0.743 H 9.083 c -0.409,0 -0.742,-0.333 -0.742,-0.743 v -2.019 c 0,-0.412 0.333,-0.743 0.742,-0.743 H 50.68 c 0.408,0 0.741,0.331 0.741,0.743 v 2.019 z"
           inkscape:connector-curvature="0"
           style="fill:#505050" />
        <path
           id="path54196"
           d="m 34.701,42.144 c 0,0.174 -0.077,0.318 -0.167,0.318 h -9.439 c -0.093,0 -0.17,-0.145 -0.17,-0.318 v -0.862 c 0,-0.176 0.077,-0.318 0.17,-0.318 h 9.439 c 0.09,0 0.167,0.143 0.167,0.318 v 0.862 z"
           inkscape:connector-curvature="0"
           style="fill:#dcddde" />
        <path
           id="path54198"
           d="m 45.934,37.166 c 0,0.412 -0.331,0.743 -0.742,0.743 H 14.047 c -0.408,0 -0.74,-0.331 -0.74,-0.743 V 17.564 c 0,-0.41 0.332,-0.743 0.74,-0.743 h 31.145 c 0.411,0 0.742,0.333 0.742,0.743 v 19.602 z"
           inkscape:connector-curvature="0"
           style="fill:#dcddde" />
        <rect
           id="rect54200"
           height="7.9790001"
           width="10.531"
           stroke-miterlimit="10"
           y="25.747999"
           x="24.483"
           style="fill:#505050;stroke:#4d4d4d;stroke-width:0.43790001;stroke-linecap:round;stroke-linejoin:round;stroke-miterlimit:10" />
        <path
           id="path54202"
           d="m 33.143,25.838 c 0,-0.028 0.004,-1.951 0.004,-1.981 0,-1.921 -1.559,-3.479 -3.48,-3.479 -1.921,0 -3.479,1.559 -3.479,3.479"
           stroke-miterlimit="10"
           inkscape:connector-curvature="0"
           style="fill:none;stroke:#4d4d4d;stroke-width:1.31359994;stroke-linecap:round;stroke-linejoin:round;stroke-miterlimit:10" />
      </g>
    </g>
    <text
       xml:space="preserve"
       style="font-size:22.16916275px;font-style:normal;font-variant:normal;font-weight:normal;font-stretch:normal;text-align:start;line-height:125%;letter-spacing:0px;word-spacing:0px;writing-mode:lr-tb;text-anchor:start;fill:#ffffff;fill-opacity:1;stroke:none;font-family:Optima;-inkscape-font-specification:Optima"
       x="51.47953"
       y="407.79498"
       id="text54222"
       sodipodi:linespacing="125%"><tspan
         sodipodi:role="line"
         id="tspan54224"
         x="51.47953"
         y="407.79498"
         style="fill:#ffffff;font-family:Arial;-inkscape-font-specification:Arial">@</tspan></text>
  </g>
</svg>
