<?xml version="1.0" encoding="UTF-8" standalone="no"?>
<!-- Created with Inkscape (http://www.inkscape.org/) -->

<svg
   xmlns:dc="http://purl.org/dc/elements/1.1/"
   xmlns:cc="http://creativecommons.org/ns#"
   xmlns:rdf="http://www.w3.org/1999/02/22-rdf-syntax-ns#"
   xmlns:svg="http://www.w3.org/2000/svg"
   xmlns="http://www.w3.org/2000/svg"
   xmlns:xlink="http://www.w3.org/1999/xlink"
   xmlns:sodipodi="http://sodipodi.sourceforge.net/DTD/sodipodi-0.dtd"
   xmlns:inkscape="http://www.inkscape.org/namespaces/inkscape"
   width="55.199894"
   height="47.170055"
   id="svg9613"
   version="1.1"
   inkscape:version="0.48.2 r9819"
   sodipodi:docname="New document 27">
  <defs
     id="defs9615">
    <linearGradient
       x1="420.98001"
       x2="297.84"
       y1="520.03998"
       gradientUnits="userSpaceOnUse"
       y2="619.15997"
       id="linearGradient5465">
      <stop
         offset="0"
         stop-color="#e6cc4b"
         id="stop5427" />
      <stop
         offset="1"
         stop-color="#f7b215"
         id="stop5429" />
    </linearGradient>
    <pattern
       patternTransform="matrix(-8.5815064,0,0,8.5815064,-4144.1633,5403.8529)"
       xlink:href="#sand_bitmap"
       id="pattern5450" />
    <pattern
       height="256"
       patternTransform="translate(-.94437 -.70828)"
       patternUnits="userSpaceOnUse"
       width="256"
       id="sand_bitmap" />
    <pattern
       patternTransform="matrix(-8.5815064,0,0,8.5815064,-4152.6549,5413.8261)"
       xlink:href="#pattern5396"
       id="pattern5447" />
    <pattern
       patternTransform="translate(.045135 .45389)"
       xlink:href="#sand_bitmap-5"
       id="pattern5396" />
    <pattern
       height="256"
       patternUnits="userSpaceOnUse"
       width="256"
       id="sand_bitmap-5" />
    <pattern
       patternTransform="matrix(-8.5815064,0,0,8.5815064,-4144.1633,5403.8529)"
       xlink:href="#sand_bitmap"
       id="pattern5444" />
    <filter
       color-interpolation-filters="sRGB"
       id="filter68110"
       inkscape:label="Drop shadow"
       width="1.5"
       height="1.5"
       x="-0.25"
       y="-0.25">
      <feGaussianBlur
         id="feGaussianBlur68112"
         in="SourceAlpha"
         stdDeviation="8.3"
         result="blur" />
      <feColorMatrix
         id="feColorMatrix68114"
         result="bluralpha"
         type="matrix"
         values="1 0 0 0 0 0 1 0 0 0 0 0 1 0 0 0 0 0 0.687 0 " />
      <feOffset
         id="feOffset68116"
         in="bluralpha"
         dx="-1.08247e-15"
         dy="15.8"
         result="offsetBlur" />
      <feMerge
         id="feMerge68118">
        <feMergeNode
           id="feMergeNode68120"
           in="offsetBlur" />
        <feMergeNode
           id="feMergeNode68122"
           in="SourceGraphic" />
      </feMerge>
    </filter>
  </defs>
  <sodipodi:namedview
     id="base"
     pagecolor="#ffffff"
     bordercolor="#666666"
     borderopacity="1.0"
     inkscape:pageopacity="0.0"
     inkscape:pageshadow="2"
     inkscape:zoom="0.35"
     inkscape:cx="434.02852"
     inkscape:cy="-176.41497"
     inkscape:document-units="px"
     inkscape:current-layer="layer1"
     showgrid="false"
     fit-margin-top="0"
     fit-margin-left="0"
     fit-margin-right="0"
     fit-margin-bottom="0"
     inkscape:window-width="483"
     inkscape:window-height="424"
     inkscape:window-x="20"
     inkscape:window-y="20"
     inkscape:window-maximized="0" />
  <metadata
     id="metadata9618">
    <rdf:RDF>
      <cc:Work
         rdf:about="">
        <dc:format>image/svg+xml</dc:format>
        <dc:type
           rdf:resource="http://purl.org/dc/dcmitype/StillImage" />
        <dc:title></dc:title>
      </cc:Work>
    </rdf:RDF>
  </metadata>
  <g
     inkscape:label="Layer 1"
     inkscape:groupmode="layer"
     id="layer1"
     transform="translate(59.028523,-308.77716)">
    <g
       id="g64600"
       transform="matrix(0.13652903,0,0,0.13652903,-161.88001,214.46911)"
       style="filter:url(#filter68110)">
      <path
         style="color:#000000;fill:#999999;fill-opacity:1;fill-rule:nonzero;stroke:none;stroke-width:0.40000001;marker:none;visibility:visible;display:inline;overflow:visible;enable-background:accumulate"
         d="m 853.15491,711.3741 c -48.11135,1.14038 -86.81693,40.81168 -86.90625,89.65625 l 0,2.125 c 1.04852,48.78487 40.52003,87.8162 88.875,87.90625 25.41717,0.0473 48.33997,-10.66733 64.59375,-27.875 l 8.15625,-3.34375 198.43754,0.65625 c 8.3156,-10.05569 18.6389,-22.63009 18.4062,-61.75 0.086,-25.64096 -9.5136,-57.81962 -18.4062,-61.125 l -197.78129,0.65625 -13.6875,-3.84375 c -15.73728,-14.30977 -36.55518,-23.01994 -59.40625,-23.0625 -0.7683,-10e-4 -1.51758,-0.0181 -2.28125,0 z"
         id="path64598"
         inkscape:connector-curvature="0" />
      <path
         inkscape:connector-curvature="0"
         id="path64536"
         d="m 853.15491,697.3741 c -48.11135,1.14038 -86.81693,40.81168 -86.90625,89.65625 l 0,2.125 c 1.04852,48.78487 40.52003,87.8162 88.875,87.90625 25.41717,0.0473 48.33997,-10.66733 64.59375,-27.875 l 8.15625,-3.34375 198.43754,0.65625 c 8.3156,-10.05569 18.6389,-22.63009 18.4062,-61.75 0.086,-25.64096 -9.5136,-57.81962 -18.4062,-61.125 l -197.78129,0.65625 -13.6875,-3.84375 c -15.73728,-14.30977 -36.55518,-23.01994 -59.40625,-23.0625 -0.7683,-10e-4 -1.51758,-0.0181 -2.28125,0 z"
         style="color:#000000;fill:#b0bcbf;fill-opacity:1;fill-rule:nonzero;stroke:none;stroke-width:0.40000001;marker:none;visibility:visible;display:inline;overflow:visible;enable-background:accumulate" />
      <path
         inkscape:connector-curvature="0"
         id="path64542"
         d="m 854.71986,724.95072 c -34.29279,-0.0636 -62.12421,27.83827 -62.1875,62.3125 l 0,1.46875 c 0.73126,33.89409 28.24518,60.99994 61.96875,61.0625 21.924,0.0407 41.20093,-11.366 52.28125,-28.59375 -7.12333,-8.92974 -11.48177,-20.12471 -11.75,-32.34375 l 0,-1.25 c 0.0238,-12.73811 4.50784,-24.44812 11.96875,-33.6875 -10.99829,-17.36667 -30.283,-28.92794 -52.28125,-28.96875 z"
         style="color:#000000;fill:#718fb9;fill-opacity:1;fill-rule:nonzero;stroke:none;stroke-width:0.40000001;marker:none;visibility:visible;display:inline;overflow:visible;enable-background:accumulate" />
      <path
         sodipodi:nodetypes="ccccccc"
         inkscape:connector-curvature="0"
         id="rect64547"
         d="m 938.39239,763.71388 177.40771,0 c 4.2472,7.66577 6.263,15.33155 5.2565,22.99732 -1.5151,6.77159 -2.1515,12.66454 -5.2565,21.02607 l -177.40771,0 c -6.79795,-7.44673 -5.84142,-14.89347 -5.91359,-22.3402 1.47766,-7.72127 2.74831,-15.64954 5.91359,-21.68319 z"
         style="color:#000000;fill:#e6e6e6;fill-opacity:1;fill-rule:nonzero;stroke:none;stroke-width:0.40000001;marker:none;visibility:visible;display:inline;overflow:visible;enable-background:accumulate" />
      <rect
         y="780.31384"
         x="942.33484"
         height="5.5520158"
         width="18.435375"
         id="rect64550"
         style="color:#000000;fill:#4d4d4d;fill-opacity:1;fill-rule:nonzero;stroke:none;stroke-width:0.40000001;marker:none;visibility:visible;display:inline;overflow:visible;enable-background:accumulate" />
      <rect
         style="color:#000000;fill:#4d4d4d;fill-opacity:1;fill-rule:nonzero;stroke:none;stroke-width:0.40000001;marker:none;visibility:visible;display:inline;overflow:visible;enable-background:accumulate"
         id="rect64552"
         width="18.435375"
         height="5.5520158"
         x="942.33484"
         y="787.84875" />
      <rect
         y="795.38367"
         x="942.33484"
         height="5.5520158"
         width="18.435375"
         id="rect64554"
         style="color:#000000;fill:#4d4d4d;fill-opacity:1;fill-rule:nonzero;stroke:none;stroke-width:0.40000001;marker:none;visibility:visible;display:inline;overflow:visible;enable-background:accumulate" />
      <text
         sodipodi:linespacing="125%"
         id="text64556"
         y="797.98022"
         x="980.90613"
         style="font-size:29.10012627px;font-style:normal;font-variant:normal;font-weight:normal;font-stretch:normal;text-align:start;line-height:125%;letter-spacing:0px;word-spacing:0px;writing-mode:lr-tb;text-anchor:start;fill:#333333;fill-opacity:1;stroke:none;font-family:Andale Mono;-inkscape-font-specification:Andale Mono"
         xml:space="preserve"><tspan
           style="font-style:normal;font-variant:normal;font-weight:normal;font-stretch:normal;fill:#333333;font-family:OCR A Std;-inkscape-font-specification:OCR A Std"
           y="797.98022"
           x="980.90613"
           id="tspan64558"
           sodipodi:role="line">159759</tspan></text>
      <rect
         ry="8.6732645"
         y="814.30792"
         x="1025.7821"
         height="19.711966"
         width="89.360909"
         id="rect64560"
         style="color:#000000;fill:#718fb9;fill-opacity:1;fill-rule:nonzero;stroke:none;stroke-width:0.40000001;marker:none;visibility:visible;display:inline;overflow:visible;enable-background:accumulate" />
      <text
         transform="scale(0.93553438,1.0689078)"
         sodipodi:linespacing="125%"
         id="text64562"
         y="751.40472"
         x="865.45776"
         style="font-size:41.65380859px;font-style:normal;font-variant:normal;font-weight:normal;font-stretch:normal;text-align:start;line-height:125%;letter-spacing:0px;word-spacing:0px;writing-mode:lr-tb;text-anchor:start;fill:#333333;fill-opacity:1;stroke:none;font-family:Optima;-inkscape-font-specification:Optima"
         xml:space="preserve"><tspan
           y="751.40472"
           x="865.45776"
           id="tspan64564"
           sodipodi:role="line">OTP</tspan></text>
      <text
         sodipodi:linespacing="125%"
         id="text64566"
         y="827.85516"
         x="1050.6666"
         style="font-size:11.33175373px;font-style:normal;font-variant:normal;font-weight:normal;font-stretch:normal;text-align:start;line-height:125%;letter-spacing:0px;word-spacing:0px;writing-mode:lr-tb;text-anchor:start;fill:#333333;fill-opacity:1;stroke:none;font-family:Optima;-inkscape-font-specification:Optima"
         xml:space="preserve"><tspan
           y="827.85516"
           x="1050.6666"
           id="tspan64568"
           sodipodi:role="line">TOKEN</tspan></text>
    </g>
    <g
       id="g107082"
       transform="matrix(0.93835851,0,0,0.93835851,-195.21671,-393.22924)">
      <g
         id="layer1-42"
         transform="matrix(-0.12418458,0,0,0.12418458,231.51758,714.4914)">
        <g
           id="g5457">
          <path
             style="fill:#e18a43"
             inkscape:connector-curvature="0"
             id="path2996-6"
             d="m 246.96,589.91 c 0,0 61.39,81.588 64.164,83.09 2.7739,1.5015 3.7808,3.3166 8.309,2.308 4.6161,-1.0282 112.89,-92.951 112.89,-92.951 0,0 2.8746,-4.1439 2.413,-6.452 -0.46162,-2.308 1.0176,-34.463 1.0176,-34.463 0,0 -0.10499,-3.8606 -1.9409,-6.557 -1.6635,-2.4432 -35.911,-36.373 -35.911,-36.373 0,0 -4.7366,-2.287 -6.9241,-2.308 -1.6643,-0.016 -32.04,-0.91267 -32.04,-0.91267 0,0 -3.5774,0.40385 -5.4238,1.3271 -1.8464,0.92321 -107.02,86.83 -107.02,86.83 0,0 -1.6159,2.9902 0.4616,6.4625 z" />
          <path
             style="fill:url(#linearGradient5465)"
             inkscape:connector-curvature="0"
             id="path2996"
             d="m 252.06,589.01 c 0,0 58.298,77.48 60.933,78.906 2.6342,1.4259 3.5904,3.1496 7.8906,2.1918 4.3836,-0.97642 107.21,-88.271 107.21,-88.271 0,0 2.7299,-3.9353 2.2915,-6.1271 -0.43837,-2.1918 0.96641,-32.728 0.96641,-32.728 0,0 -0.0997,-3.6662 -1.8431,-6.2268 -1.5798,-2.3201 -34.103,-34.541 -34.103,-34.541 0,0 -4.4981,-2.1718 -6.5755,-2.1918 -1.5805,-0.0152 -30.427,-0.86671 -30.427,-0.86671 0,0 -3.3972,0.38351 -5.1507,1.2602 -1.7535,0.87673 -101.63,82.457 -101.63,82.457 0,0 -1.5345,2.8396 0.43836,6.1371 z" />
          <path
             inkscape:connector-curvature="0"
             id="path2998"
             transform="matrix(1.2755,0,0,1.2755,-108.02,-148.18)"
             d="m 396.37,538.16 c 0,2.8726 -2.3287,5.2012 -5.2012,5.2012 -2.8726,0 -5.2012,-2.3287 -5.2012,-5.2012 0,-2.8726 2.3287,-5.2012 5.2012,-5.2012 2.8726,0 5.2012,2.3287 5.2012,5.2012 z" />
          <path
             style="fill:url(#pattern5450);stroke:#000000;stroke-width:1px"
             inkscape:connector-curvature="0"
             id="path3768"
             d="m 424.21,524.49 c 6.3634,-4.3821 11.684,-10.471 16.792,-16.126 9.4426,-10.454 24.281,-32.206 30.689,-50.923 6.4075,-18.717 7.082,-32.543 9.7799,-37.77 2.6979,-5.2272 7.7565,-11.635 7.9251,-15.851 0.16862,-4.2155 1.5168,-25.631 0.84277,-32.038 -0.475,-4.5153 0.6748,-7.5875 3.2041,-7.9247 2.5293,-0.33723 7.419,-23.101 9.2738,-29.003 1.8548,-5.9016 8.5994,-20.234 10.96,-22.763 4.0469,-0.16862 3.0356,0.16874 4.216,2.698 -1.6862,2.3607 -9.7799,19.56 -13.321,31.7 -5.3475,10.393 -0.42135,16.926 -0.17331,23.387 -0.18474,8.6396 -2.1559,11.894 -8.6433,15.289 -1.4368,0.75191 -0.47327,3.0556 -0.62604,4.3214 -1.1803,9.7799 0.6086,12.972 -1.8548,19.055 -3.8903,9.6064 -8.4305,10.285 -9.6109,19.897 -1.1803,9.6113 -4.046,17.197 -6.7439,27.82 -2.1005,8.2706 -14.332,30.089 -23.101,42.662 -11.524,16.523 -21.577,25.479 -26.559,28.972 z" />
          <path
             style="fill:url(#pattern5447);stroke:#000000;stroke-width:1px"
             inkscape:connector-curvature="0"
             id="path3768-4"
             d="m 393.1,542.09 c -5.3649,-0.41154 -11.249,-13.578 -9.814,-21.469 1.4348,-7.8915 9.8929,-27.975 16.35,-38.736 6.4567,-10.761 32.287,-38.152 39.461,-43.533 7.1741,-5.3806 45.128,-49.957 45.128,-49.957 11.114,-14.233 5.8136,-10.296 9.256,-20.119 2.2223,-2.9294 2.8352,-3.2258 7.0046,-8.4845 10.636,-13.415 25.206,-37.963 26.494,-38.736 2.8052,-0.40164 2.6186,0.14739 3.6089,2.1954 -0.35871,3.2284 -26.207,39.414 -28.718,43.36 -8.1359,23.683 -14.932,23.43 -25.48,38.538 -4.2155,6.2389 -15.179,15.686 -29.51,32.377 -10.286,7.5878 -37.263,36.083 -41.648,43.839 0,0 -12.214,18.829 -15.549,33.351 -1.9204,8.3615 -2.2358,14.2 1.0053,17.932 3.6955,4.2547 2.7113,2.2809 4.1542,3.9324 1.4429,1.6514 3.6216,5.9226 -1.7432,5.511 z" />
          <path
             style="fill:url(#pattern5444);stroke:#000000;stroke-width:1px"
             inkscape:connector-curvature="0"
             id="path5413"
             d="m 494.99,384.53 c 0,0 -5.1257,-1.4304 -6.0197,-3.8741 -0.89402,-2.4436 -2.7417,-6.8542 -0.77482,-11.563 1.9668,-4.7085 1.3708,-4.7681 5.1257,-5.9005 3.7549,-1.1324 6.9733,-0.83442 8.7018,0.59601 1.7284,1.4304 2.8013,4.1125 3.1589,6.9734 0.6062,4.8496 0.298,7.7482 -1.2516,8.821 -1.5496,1.0728 -1.6688,2.2649 -3.9933,3.7549 -2.0725,1.3285 -4.9469,1.192 -4.9469,1.192 z" />
        </g>
      </g>
      <text
         transform="matrix(0.57496981,0.81817463,-0.81817463,0.57496981,0,0)"
         sodipodi:linespacing="125%"
         id="text107078"
         y="302.22162"
         x="747.00281"
         style="font-size:15.40260696px;font-style:normal;font-variant:normal;font-weight:normal;font-stretch:normal;text-align:start;line-height:125%;letter-spacing:0px;word-spacing:0px;writing-mode:lr-tb;text-anchor:start;fill:#333333;fill-opacity:1;stroke:none;font-family:Papyrus;-inkscape-font-specification:Papyrus"
         xml:space="preserve"><tspan
           y="302.22162"
           x="747.00281"
           id="tspan107080"
           sodipodi:role="line">X</tspan></text>
    </g>
  </g>
</svg>
