<?xml version="1.0" encoding="UTF-8" standalone="no"?>
<!-- Created with Inkscape (http://www.inkscape.org/) -->

<svg
   xmlns:dc="http://purl.org/dc/elements/1.1/"
   xmlns:cc="http://creativecommons.org/ns#"
   xmlns:rdf="http://www.w3.org/1999/02/22-rdf-syntax-ns#"
   xmlns:svg="http://www.w3.org/2000/svg"
   xmlns="http://www.w3.org/2000/svg"
   xmlns:sodipodi="http://sodipodi.sourceforge.net/DTD/sodipodi-0.dtd"
   xmlns:inkscape="http://www.inkscape.org/namespaces/inkscape"
   width="64.401817"
   height="41.229359"
   id="svg7551"
   version="1.1"
   inkscape:version="0.48.2 r9819"
   sodipodi:docname="New document 14">
  <defs
     id="defs7553">
    <filter
       color-interpolation-filters="sRGB"
       id="filter68124"
       inkscape:label="Drop shadow"
       width="1.5"
       height="1.5"
       x="-0.25"
       y="-0.25">
      <feGaussianBlur
         id="feGaussianBlur68126"
         in="SourceAlpha"
         stdDeviation="8.3"
         result="blur" />
      <feColorMatrix
         id="feColorMatrix68128"
         result="bluralpha"
         type="matrix"
         values="1 0 0 0 0 0 1 0 0 0 0 0 1 0 0 0 0 0 0.687 0 " />
      <feOffset
         id="feOffset68130"
         in="bluralpha"
         dx="-1.08247e-15"
         dy="15.8"
         result="offsetBlur" />
      <feMerge
         id="feMerge68132">
        <feMergeNode
           id="feMergeNode68134"
           in="offsetBlur" />
        <feMergeNode
           id="feMergeNode68136"
           in="SourceGraphic" />
      </feMerge>
    </filter>
  </defs>
  <sodipodi:namedview
     id="base"
     pagecolor="#ffffff"
     bordercolor="#666666"
     borderopacity="1.0"
     inkscape:pageopacity="0.0"
     inkscape:pageshadow="2"
     inkscape:zoom="0.35"
     inkscape:cx="335.77234"
     inkscape:cy="-99.385325"
     inkscape:document-units="px"
     inkscape:current-layer="layer1"
     showgrid="false"
     fit-margin-top="0"
     fit-margin-left="0"
     fit-margin-right="0"
     fit-margin-bottom="0"
     inkscape:window-width="483"
     inkscape:window-height="424"
     inkscape:window-x="20"
     inkscape:window-y="20"
     inkscape:window-maximized="0" />
  <metadata
     id="metadata7556">
    <rdf:RDF>
      <cc:Work
         rdf:about="">
        <dc:format>image/svg+xml</dc:format>
        <dc:type
           rdf:resource="http://purl.org/dc/dcmitype/StillImage" />
        <dc:title></dc:title>
      </cc:Work>
    </rdf:RDF>
  </metadata>
  <g
     inkscape:label="Layer 1"
     inkscape:groupmode="layer"
     id="layer1"
     transform="translate(-39.227662,-391.7475)">
    <g
       transform="matrix(0.14445167,0,0,0.14445167,-69.483907,297.36197)"
       id="g64672"
       style="filter:url(#filter68124)">
      <path
         inkscape:connector-curvature="0"
         id="path64674"
         d="m 853.15491,711.3741 c -48.11135,1.14038 -86.81693,40.81168 -86.90625,89.65625 l 0,2.125 c 1.04852,48.78487 40.52003,87.8162 88.875,87.90625 25.41717,0.0473 48.33997,-10.66733 64.59375,-27.875 l 8.15625,-3.34375 198.43754,0.65625 c 8.3156,-10.05569 18.6389,-22.63009 18.4062,-61.75 0.086,-25.64096 -9.5136,-57.81962 -18.4062,-61.125 l -197.78129,0.65625 -13.6875,-3.84375 c -15.73728,-14.30977 -36.55518,-23.01994 -59.40625,-23.0625 -0.7683,-10e-4 -1.51758,-0.0181 -2.28125,0 z"
         style="color:#000000;fill:#999999;fill-opacity:1;fill-rule:nonzero;stroke:none;stroke-width:0.40000001;marker:none;visibility:visible;display:inline;overflow:visible;enable-background:accumulate" />
      <path
         style="color:#000000;fill:#b0bcbf;fill-opacity:1;fill-rule:nonzero;stroke:none;stroke-width:0.40000001;marker:none;visibility:visible;display:inline;overflow:visible;enable-background:accumulate"
         d="m 853.15491,697.3741 c -48.11135,1.14038 -86.81693,40.81168 -86.90625,89.65625 l 0,2.125 c 1.04852,48.78487 40.52003,87.8162 88.875,87.90625 25.41717,0.0473 48.33997,-10.66733 64.59375,-27.875 l 8.15625,-3.34375 198.43754,0.65625 c 8.3156,-10.05569 18.6389,-22.63009 18.4062,-61.75 0.086,-25.64096 -9.5136,-57.81962 -18.4062,-61.125 l -197.78129,0.65625 -13.6875,-3.84375 c -15.73728,-14.30977 -36.55518,-23.01994 -59.40625,-23.0625 -0.7683,-10e-4 -1.51758,-0.0181 -2.28125,0 z"
         id="path64676"
         inkscape:connector-curvature="0" />
      <path
         style="color:#000000;fill:#718fb9;fill-opacity:1;fill-rule:nonzero;stroke:none;stroke-width:0.40000001;marker:none;visibility:visible;display:inline;overflow:visible;enable-background:accumulate"
         d="m 854.71986,724.95072 c -34.29279,-0.0636 -62.12421,27.83827 -62.1875,62.3125 l 0,1.46875 c 0.73126,33.89409 28.24518,60.99994 61.96875,61.0625 21.924,0.0407 41.20093,-11.366 52.28125,-28.59375 -7.12333,-8.92974 -11.48177,-20.12471 -11.75,-32.34375 l 0,-1.25 c 0.0238,-12.73811 4.50784,-24.44812 11.96875,-33.6875 -10.99829,-17.36667 -30.283,-28.92794 -52.28125,-28.96875 z"
         id="path64678"
         inkscape:connector-curvature="0" />
      <path
         style="color:#000000;fill:#e6e6e6;fill-opacity:1;fill-rule:nonzero;stroke:none;stroke-width:0.40000001;marker:none;visibility:visible;display:inline;overflow:visible;enable-background:accumulate"
         d="m 938.39239,763.71388 177.40771,0 c 4.2472,7.66577 6.263,15.33155 5.2565,22.99732 -1.5151,6.77159 -2.1515,12.66454 -5.2565,21.02607 l -177.40771,0 c -6.79795,-7.44673 -5.84142,-14.89347 -5.91359,-22.3402 1.47766,-7.72127 2.74831,-15.64954 5.91359,-21.68319 z"
         id="path64680"
         inkscape:connector-curvature="0"
         sodipodi:nodetypes="ccccccc" />
      <rect
         style="color:#000000;fill:#4d4d4d;fill-opacity:1;fill-rule:nonzero;stroke:none;stroke-width:0.40000001;marker:none;visibility:visible;display:inline;overflow:visible;enable-background:accumulate"
         id="rect64682"
         width="18.435375"
         height="5.5520158"
         x="942.33484"
         y="780.31384" />
      <rect
         y="787.84875"
         x="942.33484"
         height="5.5520158"
         width="18.435375"
         id="rect64684"
         style="color:#000000;fill:#4d4d4d;fill-opacity:1;fill-rule:nonzero;stroke:none;stroke-width:0.40000001;marker:none;visibility:visible;display:inline;overflow:visible;enable-background:accumulate" />
      <rect
         style="color:#000000;fill:#4d4d4d;fill-opacity:1;fill-rule:nonzero;stroke:none;stroke-width:0.40000001;marker:none;visibility:visible;display:inline;overflow:visible;enable-background:accumulate"
         id="rect64686"
         width="18.435375"
         height="5.5520158"
         x="942.33484"
         y="795.38367" />
      <text
         xml:space="preserve"
         style="font-size:29.10012627px;font-style:normal;font-variant:normal;font-weight:normal;font-stretch:normal;text-align:start;line-height:125%;letter-spacing:0px;word-spacing:0px;writing-mode:lr-tb;text-anchor:start;fill:#333333;fill-opacity:1;stroke:none;font-family:Andale Mono;-inkscape-font-specification:Andale Mono"
         x="980.90613"
         y="797.98022"
         id="text64688"
         sodipodi:linespacing="125%"><tspan
           sodipodi:role="line"
           id="tspan64690"
           x="980.90613"
           y="797.98022"
           style="font-style:normal;font-variant:normal;font-weight:normal;font-stretch:normal;fill:#333333;font-family:OCR A Std;-inkscape-font-specification:OCR A Std">159759</tspan></text>
      <rect
         style="color:#000000;fill:#718fb9;fill-opacity:1;fill-rule:nonzero;stroke:none;stroke-width:0.40000001;marker:none;visibility:visible;display:inline;overflow:visible;enable-background:accumulate"
         id="rect64692"
         width="89.360909"
         height="19.711966"
         x="1025.7821"
         y="814.30792"
         ry="8.6732645" />
      <text
         xml:space="preserve"
         style="font-size:41.65380859px;font-style:normal;font-variant:normal;font-weight:normal;font-stretch:normal;text-align:start;line-height:125%;letter-spacing:0px;word-spacing:0px;writing-mode:lr-tb;text-anchor:start;fill:#333333;fill-opacity:1;stroke:none;font-family:Optima;-inkscape-font-specification:Optima"
         x="865.45776"
         y="751.40472"
         id="text64694"
         sodipodi:linespacing="125%"
         transform="scale(0.93553438,1.0689078)"><tspan
           sodipodi:role="line"
           id="tspan64696"
           x="865.45776"
           y="751.40472">OTP</tspan></text>
      <text
         xml:space="preserve"
         style="font-size:11.33175373px;font-style:normal;font-variant:normal;font-weight:normal;font-stretch:normal;text-align:start;line-height:125%;letter-spacing:0px;word-spacing:0px;writing-mode:lr-tb;text-anchor:start;fill:#333333;fill-opacity:1;stroke:none;font-family:Optima;-inkscape-font-specification:Optima"
         x="1050.6666"
         y="827.85516"
         id="text64698"
         sodipodi:linespacing="125%"><tspan
           sodipodi:role="line"
           id="tspan64700"
           x="1050.6666"
           y="827.85516">TOKEN</tspan></text>
    </g>
    <g
       id="g66716"
       transform="matrix(0.14938173,0,0,0.14938173,62.400124,391.7475)"
       style="opacity:0.68224332">
      <circle
         id="circle66706"
         r="124"
         cy="138"
         cx="138"
         sodipodi:cx="138"
         sodipodi:cy="138"
         sodipodi:rx="124"
         sodipodi:ry="124"
         style="fill:none;stroke:#b30000;stroke-width:28"
         d="M 262,138 C 262,206.48331 206.48331,262 138,262 69.516691,262 14,206.48331 14,138 14,69.516691 69.516691,14 138,14 c 68.48331,0 124,55.516691 124,124 z" />
      <line
         id="line66708"
         y2="231"
         x2="231"
         y1="45"
         x1="45"
         style="stroke:#b30000;stroke-width:22" />
    </g>
  </g>
</svg>
